<svg id="Capa_1" data-name="Capa 1" xmlns="http://www.w3.org/2000/svg" xmlns:xlink="http://www.w3.org/1999/xlink" viewBox="0 0 40 40"><defs><style>.cls-1{fill:url(#linear-gradient);}.cls-2{fill:url(#linear-gradient-2);}.cls-3{fill:url(#linear-gradient-3);}</style><linearGradient id="linear-gradient" x1="12.28" y1="20.01" x2="44.65" y2="20.01" gradientUnits="userSpaceOnUse"><stop offset="0" stop-color="#e68e24"/><stop offset="1" stop-color="#ca4727"/></linearGradient><linearGradient id="linear-gradient-2" x1="12.28" y1="15.21" x2="44.65" y2="15.21" xlink:href="#linear-gradient"/><linearGradient id="linear-gradient-3" x1="12.28" y1="28.6" x2="44.65" y2="28.6" gradientTransform="translate(16.13 -12.73) rotate(25.98)" xlink:href="#linear-gradient"/></defs><title>analisis</title><polygon class="cls-1" points="2.49 26.56 0.99 24.69 11.45 16.32 17.33 20.7 28.03 13.46 29.38 15.45 17.26 23.64 11.5 19.36 2.49 26.56"/><path class="cls-2" d="M28.7,23.37a8.16,8.16,0,1,1,8.16-8.16A8.17,8.17,0,0,1,28.7,23.37Zm0-13.91a5.76,5.76,0,1,0,5.76,5.75A5.76,5.76,0,0,0,28.7,9.46Z"/><rect class="cls-3" x="34.46" y="23.42" width="2.4" height="10.35" transform="translate(-8.92 18.51) rotate(-25.98)"/></svg>