<svg id="Capa_1" data-name="Capa 1" xmlns="http://www.w3.org/2000/svg" viewBox="0 0 105.4 59.56"><defs><style>.cls-1{fill:#fff;}.cls-2,.cls-5{fill:#f2c691;}.cls-2,.cls-3,.cls-4,.cls-5{stroke:#e68e24;stroke-linecap:round;stroke-linejoin:round;}.cls-2,.cls-4{stroke-width:1.06px;}.cls-3,.cls-4{fill:none;}.cls-3,.cls-5{stroke-width:1.77px;}</style></defs><title>auditoria</title><path class="cls-1" d="M5.74,21.48H20.42a2.07,2.07,0,0,1,2.07,2.07V51.61a0,0,0,0,1,0,0H3.66a0,0,0,0,1,0,0V23.55A2.07,2.07,0,0,1,5.74,21.48Z"/><path class="cls-2" d="M3.66,51.61H22.49a0,0,0,0,1,0,0v3.63a1.87,1.87,0,0,1-1.87,1.87H5.53a1.87,1.87,0,0,1-1.87-1.87V51.61A0,0,0,0,1,3.66,51.61Z"/><rect class="cls-1" x="33.44" y="2.45" width="68.3" height="45.51" rx="2.66" ry="2.66"/><rect class="cls-3" x="3.66" y="21.48" width="18.83" height="35.63" rx="1.91" ry="1.91"/><line class="cls-4" x1="3.66" y1="51.61" x2="22.49" y2="51.61"/><line class="cls-4" x1="11.03" y1="24.81" x2="15.12" y2="24.81"/><rect class="cls-3" x="33.44" y="2.45" width="68.3" height="45.51" rx="2.66" ry="2.66"/><line class="cls-4" x1="33.44" y1="37.46" x2="101.74" y2="37.46"/><rect class="cls-2" x="58.49" y="47.96" width="18.21" height="5.81"/><rect class="cls-5" x="56.8" y="53.78" width="22.34" height="3.33"/></svg>