<svg xmlns="http://www.w3.org/2000/svg" xmlns:xlink="http://www.w3.org/1999/xlink" viewBox="0 0 655.94 364.56"><defs><style>.cls-1{fill:#999;}.cls-2,.cls-4,.cls-6{fill:none;stroke-miterlimit:10;stroke-width:7px;}.cls-2{stroke:url(#Degradado_sin_nombre_5);}.cls-3{fill:url(#Degradado_sin_nombre_5-2);}.cls-4{stroke:url(#Degradado_sin_nombre_5-3);}.cls-5{fill:url(#Degradado_sin_nombre_5-4);}.cls-6{stroke:url(#Degradado_sin_nombre_5-5);}.cls-7{fill:url(#Degradado_sin_nombre_5-6);}</style><linearGradient id="Degradado_sin_nombre_5" x1="392.08" x2="630.96" y1="133.12" y2="133.12" gradientUnits="userSpaceOnUse"><stop offset="0" stop-color="#e68e24"/><stop offset="1" stop-color="#ca4727"/></linearGradient><linearGradient id="Degradado_sin_nombre_5-2" x1="392.08" x2="630.96" y1="248.53" y2="248.53" xlink:href="#Degradado_sin_nombre_5"/><linearGradient id="Degradado_sin_nombre_5-3" x1="24.98" x2="260.95" y1="134.67" y2="134.67" xlink:href="#Degradado_sin_nombre_5"/><linearGradient id="Degradado_sin_nombre_5-4" x1="24.98" x2="260.95" y1="97.07" y2="97.07" xlink:href="#Degradado_sin_nombre_5"/><linearGradient id="Degradado_sin_nombre_5-5" x1="210.5" x2="446.47" y1="248.79" y2="248.79" xlink:href="#Degradado_sin_nombre_5"/><linearGradient id="Degradado_sin_nombre_5-6" x1="210.5" x2="446.47" y1="268.9" y2="268.9" xlink:href="#Degradado_sin_nombre_5"/></defs><title>grafico-ciberseguridad</title><path d="M452.55 131.84h-6.85l-1.2 3.87h-5.34l7.6-20.7h4.7l7.67 20.74h-5.37zM446.9 128h4.45l-2.23-7.2zM464.15 120.3l.15 1.8a5.23 5.23 0 0 1 4.4-2.1 4.4 4.4 0 0 1 3.6 1.45 6.87 6.87 0 0 1 1.23 4.33v9.93h-4.8V126a2.64 2.64 0 0 0-.48-1.72 2.2 2.2 0 0 0-1.7-.54 2.3 2.3 0 0 0-2.1 1.1v10.9h-4.8V120.3zM484.87 135.7a5.28 5.28 0 0 1-.45-1.37 4.5 4.5 0 0 1-3.7 1.67 5.47 5.47 0 0 1-3.7-1.32 4.2 4.2 0 0 1-1.54-3.32 4.28 4.28 0 0 1 1.86-3.78 9.37 9.37 0 0 1 5.38-1.3h1.48v-.8c0-1.42-.6-2.14-1.83-2.14a1.5 1.5 0 0 0-1.7 1.7h-4.8a4.28 4.28 0 0 1 1.9-3.63 8 8 0 0 1 4.84-1.4 7 7 0 0 1 4.67 1.45 5 5 0 0 1 1.75 4v6.82a7.1 7.1 0 0 0 .65 3.25v.24zm-1.8-21.87h5.07l-4 4.47h-3.9zm-1.2 18.75a2.66 2.66 0 0 0 1.5-.4 2.4 2.4 0 0 0 .83-.86v-2.46h-1.4c-1.66 0-2.5.75-2.5 2.25a1.38 1.38 0 0 0 .44 1.07 1.62 1.62 0 0 0 1.13.4zM496.74 135.7h-4.82v-21.87h4.82zM499.66 116.32a2.16 2.16 0 0 1 .74-1.68 3.18 3.18 0 0 1 3.85 0 2.16 2.16 0 0 1 .74 1.68 2.13 2.13 0 0 1-.75 1.68 3.14 3.14 0 0 1-3.85 0 2.13 2.13 0 0 1-.74-1.68zm5.1 19.4H500V120.3h4.8zM515.8 131.38a1.1 1.1 0 0 0-.65-1 9.4 9.4 0 0 0-2.44-.77 11.14 11.14 0 0 1-3-1 4.92 4.92 0 0 1-1.7-1.6 3.78 3.78 0 0 1-.62-2.13 4.25 4.25 0 0 1 1.76-3.5 7.16 7.16 0 0 1 4.58-1.37 8 8 0 0 1 4.9 1.38 4.33 4.33 0 0 1 1.86 3.64h-4.82q0-1.86-2-1.86a1.93 1.93 0 0 0-1.27.42 1.3 1.3 0 0 0-.52 1 1.2 1.2 0 0 0 .62 1 5.85 5.85 0 0 0 2 .66 16.87 16.87 0 0 1 2.4.6q3.5 1.2 3.5 4.3a4 4 0 0 1-1.9 3.43 9.3 9.3 0 0 1-8.37.6 5.88 5.88 0 0 1-2.42-1.92 4.4 4.4 0 0 1-.86-2.58h4.5a1.85 1.85 0 0 0 .7 1.56 3 3 0 0 0 1.75.5 2.3 2.3 0 0 0 1.47-.4 1.3 1.3 0 0 0 .52-.95zM522.62 116.32a2.14 2.14 0 0 1 .75-1.68 3.16 3.16 0 0 1 3.84 0 2.13 2.13 0 0 1 .75 1.68 2.1 2.1 0 0 1-.74 1.68 3.12 3.12 0 0 1-3.83 0 2.1 2.1 0 0 1-.75-1.68zm5.1 19.4h-4.8V120.3h4.8zM538.75 131.38a1.1 1.1 0 0 0-.64-1 9.4 9.4 0 0 0-2.43-.77 11.4 11.4 0 0 1-3-1 5 5 0 0 1-1.78-1.56 3.77 3.77 0 0 1-.62-2.13 4.24 4.24 0 0 1 1.75-3.48 7.2 7.2 0 0 1 4.6-1.38 8 8 0 0 1 4.9 1.38 4.34 4.34 0 0 1 1.84 3.64h-4.82q0-1.86-2-1.86a2 2 0 0 0-1.27.42 1.3 1.3 0 0 0-.5 1 1.18 1.18 0 0 0 .62 1 5.78 5.78 0 0 0 2 .66 16.53 16.53 0 0 1 2.4.6q3.5 1.2 3.5 4.3a4 4 0 0 1-1.88 3.43 8.25 8.25 0 0 1-4.85 1.34 8.35 8.35 0 0 1-3.54-.72 5.94 5.94 0 0 1-2.42-1.93 4.4 4.4 0 0 1-.86-2.6h4.5a1.88 1.88 0 0 0 .7 1.57 3 3 0 0 0 1.76.5 2.28 2.28 0 0 0 1.47-.4 1.27 1.27 0 0 0 .58-1zM552.28 127.9a9.4 9.4 0 0 1 1.6-5.78 5.18 5.18 0 0 1 4.4-2.1 4.4 4.4 0 0 1 3.48 1.62v-7.8h4.8v21.87h-4.3l-.25-1.64a4.54 4.54 0 0 1-3.75 1.94 5.23 5.23 0 0 1-4.36-2.1 9.76 9.76 0 0 1-1.62-6zm4.8.3c0 2.72.8 4.1 2.4 4.1a2.38 2.38 0 0 0 2.28-1.35v-5.87a2.3 2.3 0 0 0-2.25-1.36c-1.47 0-2.28 1.2-2.4 3.58zM576.76 136a7.9 7.9 0 0 1-5.74-2.12 7.33 7.33 0 0 1-2.2-5.5V128a9.54 9.54 0 0 1 .88-4.17 6.38 6.38 0 0 1 2.56-2.8 7.72 7.72 0 0 1 4-1 6.64 6.64 0 0 1 5.12 2 7.88 7.88 0 0 1 1.9 5.62v1.86h-9.56a3.44 3.44 0 0 0 1.13 2 3.37 3.37 0 0 0 2.25.75 4.32 4.32 0 0 0 3.56-1.6l2.2 2.6a6.17 6.17 0 0 1-2.55 2 8.6 8.6 0 0 1-3.54.75zm-.54-12.28c-1.4 0-2.24.93-2.5 2.8h4.83v-.38a2.37 2.37 0 0 0-.58-1.8 2.33 2.33 0 0 0-1.75-.62zM458.22 170.72h-4.82v-21.88h4.82zM460.57 162.87a9.07 9.07 0 0 1 .9-4.1 6.4 6.4 0 0 1 2.58-2.78 7.7 7.7 0 0 1 3.94-1 7.1 7.1 0 0 1 5.45 2.14 8.2 8.2 0 0 1 2 5.83v.17a8 8 0 0 1-2 5.72A7.1 7.1 0 0 1 468 171a7.2 7.2 0 0 1-5.3-2 7.73 7.73 0 0 1-2.14-5.35zm4.8.3a5.7 5.7 0 0 0 .67 3.13 2.23 2.23 0 0 0 2 1q2.57 0 2.62-3.94v-.5q0-4.13-2.65-4.13-2.4 0-2.6 3.57zM485.63 166.4a1.1 1.1 0 0 0-.64-1 9.4 9.4 0 0 0-2.45-.78 11.27 11.27 0 0 1-3-1 5 5 0 0 1-1.78-1.57 3.78 3.78 0 0 1-.62-2.13 4.25 4.25 0 0 1 1.85-3.52 7.16 7.16 0 0 1 4.58-1.38 8 8 0 0 1 4.9 1.38 4.33 4.33 0 0 1 1.86 3.64h-4.82q0-1.86-2-1.86a1.94 1.94 0 0 0-1.27.42 1.32 1.32 0 0 0-.5 1.05 1.18 1.18 0 0 0 .62 1 5.7 5.7 0 0 0 2 .66 16.87 16.87 0 0 1 2.4.62q3.5 1.2 3.5 4.3a4 4 0 0 1-1.9 3.42 8.2 8.2 0 0 1-4.84 1.33 8.3 8.3 0 0 1-3.53-.72 5.94 5.94 0 0 1-2.42-1.93 4.4 4.4 0 0 1-.87-2.58h4.5a1.85 1.85 0 0 0 .7 1.56 2.92 2.92 0 0 0 1.76.5 2.3 2.3 0 0 0 1.48-.4 1.3 1.3 0 0 0 .5-1zM499.16 162.9a9.46 9.46 0 0 1 1.58-5.77 5.2 5.2 0 0 1 4.42-2.1 4.43 4.43 0 0 1 3.48 1.62v-7.8h4.8v21.87h-4.3l-.25-1.65a4.55 4.55 0 0 1-3.77 1.94 5.2 5.2 0 0 1-4.36-2.1 9.76 9.76 0 0 1-1.6-6zm4.8.3q0 4.1 2.4 4.1a2.36 2.36 0 0 0 2.28-1.34v-5.87a2.3 2.3 0 0 0-2.26-1.37c-1.48 0-2.28 1.2-2.4 3.6zM524.86 170.72a5.28 5.28 0 0 1-.45-1.38 4.5 4.5 0 0 1-3.7 1.66 5.45 5.45 0 0 1-3.7-1.32 4.2 4.2 0 0 1-1.53-3.3 4.3 4.3 0 0 1 1.86-3.8 9.35 9.35 0 0 1 5.38-1.3h1.5v-.8c0-1.42-.62-2.13-1.85-2.13a1.5 1.5 0 0 0-1.7 1.68h-4.8a4.3 4.3 0 0 1 1.9-3.62 8 8 0 0 1 4.85-1.4 7 7 0 0 1 4.65 1.45 5 5 0 0 1 1.76 3.95v6.82a7 7 0 0 0 .66 3.25v.24zm-3-3.13a2.63 2.63 0 0 0 1.48-.4 2.27 2.27 0 0 0 .85-.87v-2.46h-1.4c-1.68 0-2.5.75-2.5 2.25a1.38 1.38 0 0 0 .43 1.06 1.6 1.6 0 0 0 1.13.4zM537.26 151.47v3.84h2.53v3.34h-2.54v7.05a1.78 1.78 0 0 0 .3 1.2 1.67 1.67 0 0 0 1.25.34 6.74 6.74 0 0 0 1.2-.08v3.43a8.67 8.67 0 0 1-2.7.4 5 5 0 0 1-3.66-1.16 4.8 4.8 0 0 1-1.2-3.55v-7.66h-2v-3.33h2v-3.83zM540.65 162.87a9.07 9.07 0 0 1 .9-4.1 6.46 6.46 0 0 1 2.57-2.78 7.74 7.74 0 0 1 4-1 7.07 7.07 0 0 1 5.45 2.14 8.22 8.22 0 0 1 2 5.83v.17a8 8 0 0 1-2 5.72 8 8 0 0 1-10.7.14 7.7 7.7 0 0 1-2.16-5.35zm4.8.3a5.7 5.7 0 0 0 .67 3.13 2.2 2.2 0 0 0 2 1q2.56 0 2.62-3.94v-.5c0-2.75-.9-4.13-2.65-4.13s-2.5 1.2-2.62 3.57zM565.7 166.4a1.1 1.1 0 0 0-.64-1 9.3 9.3 0 0 0-2.43-.78 11.35 11.35 0 0 1-3-1 5.1 5.1 0 0 1-1.78-1.57 3.77 3.77 0 0 1-.6-2.13 4.24 4.24 0 0 1 1.75-3.52 7.2 7.2 0 0 1 4.6-1.38 8 8 0 0 1 4.9 1.38 4.32 4.32 0 0 1 1.84 3.64h-4.8q0-1.86-1.96-1.86a1.93 1.93 0 0 0-1.27.42 1.32 1.32 0 0 0-.5 1.05 1.17 1.17 0 0 0 .62 1 5.86 5.86 0 0 0 2 .66 17 17 0 0 1 2.42.62c2.32.8 3.47 2.23 3.47 4.3a4 4 0 0 1-1.86 3.42 9.3 9.3 0 0 1-8.38.6 5.8 5.8 0 0 1-2.42-1.92 4.4 4.4 0 0 1-.87-2.58h4.48a1.86 1.86 0 0 0 .72 1.56 2.9 2.9 0 0 0 1.75.5 2.26 2.26 0 0 0 1.47-.4 1.27 1.27 0 0 0 .5-1z" class="cls-1"/><path d="M430 215.7a115.94 115.94 0 1 1 89.52 33.23" class="cls-2"/><path d="M532.97 236.47l-11.4 12.33 12.35 11.38-10.07.4-12.33-11.38 11.38-12.33 10.07-.4z" class="cls-3"/><path d="M84.52 128.37h-2.7v7.34h-5V115H85a9.12 9.12 0 0 1 5.77 1.63 5.56 5.56 0 0 1 2.08 4.63 6.7 6.7 0 0 1-.88 3.6 6.2 6.2 0 0 1-2.74 2.3l4.33 8.37v.2H88.2zm-2.7-3.84H85a2.85 2.85 0 0 0 2.15-.75 3.44 3.44 0 0 0 0-4.2 2.83 2.83 0 0 0-2.14-.77h-3.18zM103.1 136a7.9 7.9 0 0 1-5.75-2.12 7.3 7.3 0 0 1-2.2-5.5V128a9.4 9.4 0 0 1 .85-4.2 6.38 6.38 0 0 1 2.56-2.8 7.7 7.7 0 0 1 4-1 6.64 6.64 0 0 1 5.13 2 7.87 7.87 0 0 1 1.87 5.62v1.86H100a3.48 3.48 0 0 0 1.12 2 3.38 3.38 0 0 0 2.26.74 4.34 4.34 0 0 0 3.62-1.52l2.2 2.6a6.23 6.23 0 0 1-2.55 2 8.6 8.6 0 0 1-3.56.7zm-.55-12.28c-1.4 0-2.25.93-2.5 2.8h4.83v-.38a2.37 2.37 0 0 0-.58-1.8 2.33 2.33 0 0 0-1.75-.62zM118 132.3a2.12 2.12 0 0 0 1.57-.56 2 2 0 0 0 .54-1.53h4.5a5.32 5.32 0 0 1-1.8 4.17 7.63 7.63 0 0 1-10-.48 8.3 8.3 0 0 1-1.94-5.85v-.2a9.47 9.47 0 0 1 .86-4.13 6.22 6.22 0 0 1 2.5-2.75 7.4 7.4 0 0 1 3.83-1 6.7 6.7 0 0 1 4.78 1.67 5.92 5.92 0 0 1 1.76 4.5h-4.5a2.66 2.66 0 0 0-.6-1.82 2 2 0 0 0-1.56-.64c-1.25 0-2 .8-2.18 2.37a16.2 16.2 0 0 0-.1 2.08 6.6 6.6 0 0 0 .55 3.22 1.94 1.94 0 0 0 1.8.94zM126.07 127.86a9.2 9.2 0 0 1 .9-4.1 6.46 6.46 0 0 1 2.57-2.78 7.74 7.74 0 0 1 4-1 7.07 7.07 0 0 1 5.45 2.15 8.2 8.2 0 0 1 2 5.83v.17a8 8 0 0 1-2 5.72 8 8 0 0 1-10.72.14 7.7 7.7 0 0 1-2.15-5.36zm4.8.3a5.7 5.7 0 0 0 .67 3.13 2.2 2.2 0 0 0 2 1c1.7 0 2.58-1.32 2.62-3.96v-.48c0-2.76-.9-4.14-2.65-4.14s-2.47 1.2-2.6 3.57zM142.5 127.9a10.42 10.42 0 0 1 .76-4.14 6.15 6.15 0 0 1 2.2-2.77 5.82 5.82 0 0 1 3.36-1 4.6 4.6 0 0 1 3.76 1.62l.17-1.34h4.36v14.83a6.55 6.55 0 0 1-1 3.55 6.06 6.06 0 0 1-2.73 2.3 10 10 0 0 1-4.16.8 8.68 8.68 0 0 1-3.28-.63 5.92 5.92 0 0 1-2.42-1.67l2-2.82a4.43 4.43 0 0 0 3.54 1.58c2.12 0 3.2-1.08 3.2-3.26v-.5a4.5 4.5 0 0 1-3.5 1.54 5.57 5.57 0 0 1-4.56-2.16 9 9 0 0 1-1.74-5.78zm4.8.3a5.46 5.46 0 0 0 .72 3 2.25 2.25 0 0 0 2 1.1 2.57 2.57 0 0 0 2.27-1v-6.5a2.5 2.5 0 0 0-2.25-1 2.28 2.28 0 0 0-2 1.15 6.33 6.33 0 0 0-.74 3.24zM159.8 116.32a2.16 2.16 0 0 1 .74-1.68 3.18 3.18 0 0 1 3.85 0 2.16 2.16 0 0 1 .73 1.68 2.13 2.13 0 0 1-.74 1.68 3.14 3.14 0 0 1-3.86 0 2.13 2.13 0 0 1-.74-1.68zm5.1 19.4h-4.8V120.3h4.8zM167.25 127.9a9.46 9.46 0 0 1 1.58-5.78 5.2 5.2 0 0 1 4.42-2.1 4.4 4.4 0 0 1 3.47 1.62v-7.8h4.82v21.87h-4.32l-.24-1.64a4.55 4.55 0 0 1-3.76 1.94 5.2 5.2 0 0 1-4.36-2.1 9.76 9.76 0 0 1-1.6-6zm4.8.3q0 4.08 2.4 4.1a2.35 2.35 0 0 0 2.27-1.35v-5.87a2.28 2.28 0 0 0-2.25-1.36c-1.48 0-2.28 1.2-2.4 3.58zM193 135.7a5.63 5.63 0 0 1-.46-1.37 4.45 4.45 0 0 1-3.7 1.67 5.45 5.45 0 0 1-3.7-1.32 4.2 4.2 0 0 1-1.53-3.32 4.3 4.3 0 0 1 1.86-3.78 9.4 9.4 0 0 1 5.4-1.3h1.47v-.8c0-1.42-.6-2.14-1.84-2.14a1.5 1.5 0 0 0-1.72 1.7h-4.8a4.3 4.3 0 0 1 1.9-3.63 8 8 0 0 1 4.86-1.4 7 7 0 0 1 4.65 1.45 5 5 0 0 1 1.75 4v6.82a7 7 0 0 0 .65 3.25v.24zm-3-3.12a2.64 2.64 0 0 0 1.5-.4 2.34 2.34 0 0 0 .84-.86v-2.46h-1.4c-1.67 0-2.5.75-2.5 2.25a1.35 1.35 0 0 0 .44 1.07 1.6 1.6 0 0 0 1.06.4zM74.45 162.9a9.4 9.4 0 0 1 1.55-5.77 5.18 5.18 0 0 1 4.44-2.13 4.4 4.4 0 0 1 3.48 1.63v-7.8h4.8v21.87h-4.3l-.24-1.65a4.57 4.57 0 0 1-3.76 1.95 5.2 5.2 0 0 1-4.36-2.1 9.7 9.7 0 0 1-1.6-6zm4.8.3q0 4.1 2.4 4.1a2.36 2.36 0 0 0 2.27-1.3v-5.87a2.3 2.3 0 0 0-2.25-1.36c-1.48 0-2.3 1.2-2.4 3.6zM98.92 171a7.93 7.93 0 0 1-5.74-2.12 7.32 7.32 0 0 1-2.18-5.5V163a9.55 9.55 0 0 1 .87-4.18 6.5 6.5 0 0 1 2.56-2.8 7.72 7.72 0 0 1 4-1 6.67 6.67 0 0 1 5.13 2 7.94 7.94 0 0 1 1.88 5.62v1.86h-9.57a3.44 3.44 0 0 0 1.13 2 3.37 3.37 0 0 0 2.25.74 4.3 4.3 0 0 0 3.56-1.6l2.2 2.66a6 6 0 0 1-2.54 2 8.6 8.6 0 0 1-3.54.7zm-.54-12.28c-1.4 0-2.24.93-2.5 2.8h4.84v-.38a2.4 2.4 0 0 0-.6-1.8 2.33 2.33 0 0 0-1.74-.6zM120.2 151.47v3.84h2.54v3.34h-2.54v7.05a1.77 1.77 0 0 0 .32 1.2 1.67 1.67 0 0 0 1.24.34 6.74 6.74 0 0 0 1.2-.08v3.43a8.67 8.67 0 0 1-2.7.4 5 5 0 0 1-3.67-1.16 4.8 4.8 0 0 1-1.2-3.55v-7.66h-2v-3.33h2v-3.83zM134 159.65l-1.58-.1c-1.5 0-2.48.46-2.9 1.4v9.77h-4.8v-15.4h4.5l.15 2a3.72 3.72 0 0 1 3.33-2.32 4.85 4.85 0 0 1 1.34.17zM144.37 170.72a4.9 4.9 0 0 1-.46-1.38 4.47 4.47 0 0 1-3.7 1.67 5.47 5.47 0 0 1-3.7-1.3 4.2 4.2 0 0 1-1.52-3.32 4.28 4.28 0 0 1 1.85-3.8 9.37 9.37 0 0 1 5.38-1.28h1.5v-.8c0-1.43-.62-2.14-1.84-2.14a1.5 1.5 0 0 0-1.7 1.68h-4.8a4.3 4.3 0 0 1 1.9-3.62 8 8 0 0 1 4.84-1.4 7 7 0 0 1 4.66 1.44 5 5 0 0 1 1.75 3.95v6.83a7 7 0 0 0 .67 3.25v.24zm-1.8-21.88h5.06l-4 4.47h-3.92zm-1.2 18.75a2.66 2.66 0 0 0 1.48-.4 2.42 2.42 0 0 0 .85-.87v-2.46h-1.4c-1.67 0-2.5.75-2.5 2.25a1.38 1.38 0 0 0 .43 1.06 1.62 1.62 0 0 0 1.13.4zM152.23 170.72v-12.08H150v-3.33h2.24v-1.22a5.34 5.34 0 0 1 1.55-4.1 6.14 6.14 0 0 1 4.35-1.44 9.56 9.56 0 0 1 2.25.3v3.53a4.67 4.67 0 0 0-1.2-.13c-1.44 0-2.17.63-2.17 1.88v1.2h3v3.32h-3v12.08zM161.7 151.33a2.16 2.16 0 0 1 .74-1.68 3.18 3.18 0 0 1 3.85 0 2.16 2.16 0 0 1 .73 1.68 2.13 2.13 0 0 1-.74 1.68 3.14 3.14 0 0 1-3.86 0 2.13 2.13 0 0 1-.74-1.67zm5.1 19.4H162V155.3h4.8zM176.28 167.3a2.1 2.1 0 0 0 1.56-.55 2 2 0 0 0 .54-1.53h4.5a5.33 5.33 0 0 1-1.8 4.16 6.77 6.77 0 0 1-4.7 1.63 6.86 6.86 0 0 1-5.3-2.1 8.32 8.32 0 0 1-1.93-5.84v-.2a9.36 9.36 0 0 1 .87-4.13 6.26 6.26 0 0 1 2.48-2.73 7.43 7.43 0 0 1 3.85-1 6.68 6.68 0 0 1 4.77 1.67 5.9 5.9 0 0 1 1.77 4.5h-4.52a2.6 2.6 0 0 0-.58-1.82 2 2 0 0 0-1.57-.64c-1.24 0-2 .8-2.18 2.38a18.3 18.3 0 0 0-.1 2.08 6.56 6.56 0 0 0 .56 3.22 1.92 1.92 0 0 0 1.78.92zM184.3 162.87a9.07 9.07 0 0 1 .9-4.1 6.46 6.46 0 0 1 2.6-2.78 7.7 7.7 0 0 1 3.93-1 7.1 7.1 0 0 1 5.46 2.14 8.2 8.2 0 0 1 2 5.83v.17a8 8 0 0 1-2 5.72 8 8 0 0 1-10.7.14 7.74 7.74 0 0 1-2.17-5.35zm4.8.3a5.7 5.7 0 0 0 .68 3.13 2.23 2.23 0 0 0 2 1q2.56 0 2.62-3.94v-.5q0-4.13-2.65-4.13-2.4 0-2.6 3.57z" class="cls-1"/><path d="M144.42 250.6a115.92 115.92 0 1 1 111.1-149.15" class="cls-4"/><path d="M240.45 91.02l14.5 8.44 8.45-14.5 2.57 9.73-8.43 14.5-14.5-8.44-2.6-9.74z" class="cls-5"/><path d="M280.94 231.87h-6.85l-1.2 3.87h-5.35l7.6-20.74h4.7l7.67 20.74h-5.37zm-5.66-3.87h4.46l-2.24-7.2zM295.33 232.32a2.1 2.1 0 0 0 1.56-.55 2 2 0 0 0 .53-1.53h4.5a5.33 5.33 0 0 1-1.8 4.16 6.72 6.72 0 0 1-4.7 1.63 6.86 6.86 0 0 1-5.3-2.1 8.32 8.32 0 0 1-1.93-5.85v-.2a9.36 9.36 0 0 1 .87-4.13 6.3 6.3 0 0 1 2.48-2.75 7.43 7.43 0 0 1 3.85-1 6.68 6.68 0 0 1 4.77 1.67 5.9 5.9 0 0 1 1.77 4.52h-4.5a2.64 2.64 0 0 0-.6-1.85 2 2 0 0 0-1.56-.64c-1.24 0-2 .8-2.18 2.4a18 18 0 0 0-.1 2.07 6.62 6.62 0 0 0 .56 3.22 1.94 1.94 0 0 0 1.77.92zM310.48 232.32a2.12 2.12 0 0 0 1.57-.55 2 2 0 0 0 .54-1.53h4.5a5.32 5.32 0 0 1-1.82 4.16 6.72 6.72 0 0 1-4.68 1.6 6.86 6.86 0 0 1-5.3-2.1 8.32 8.32 0 0 1-1.94-5.85v-.2a9.5 9.5 0 0 1 .86-4.13 6.4 6.4 0 0 1 2.5-2.75 7.4 7.4 0 0 1 3.84-1 6.68 6.68 0 0 1 4.77 1.67 5.94 5.94 0 0 1 1.76 4.52h-4.5a2.64 2.64 0 0 0-.6-1.84 2 2 0 0 0-1.56-.64c-1.24 0-2 .8-2.18 2.38a16 16 0 0 0-.1 2.08 6.62 6.62 0 0 0 .56 3.22 1.93 1.93 0 0 0 1.76.96zM319.1 216.35a2.16 2.16 0 0 1 .73-1.68 2.8 2.8 0 0 1 1.92-.65 2.85 2.85 0 0 1 1.93.65 2.16 2.16 0 0 1 .74 1.68 2.13 2.13 0 0 1-.74 1.68 2.8 2.8 0 0 1-1.93.66 2.76 2.76 0 0 1-1.92-.67 2.13 2.13 0 0 1-.74-1.68zm5.1 19.4h-4.83v-15.42h4.82zM326.54 227.9a9.07 9.07 0 0 1 .9-4.12A6.4 6.4 0 0 1 330 221a7.8 7.8 0 0 1 3.94-1 7.1 7.1 0 0 1 5.46 2.15 8.2 8.2 0 0 1 2 5.83v.17a8 8 0 0 1-2 5.72A7.1 7.1 0 0 1 334 236a7.2 7.2 0 0 1-5.3-2 7.7 7.7 0 0 1-2.14-5.35zm4.8.3a5.72 5.72 0 0 0 .67 3.13 2.24 2.24 0 0 0 2 1q2.57 0 2.63-3.94v-.5q0-4.14-2.65-4.14-2.4 0-2.6 3.57zM347.94 220.33l.15 1.8a5.23 5.23 0 0 1 4.4-2.1 4.38 4.38 0 0 1 3.6 1.45 6.75 6.75 0 0 1 1.22 4.33v9.94h-4.8V226a2.6 2.6 0 0 0-.48-1.7 2.15 2.15 0 0 0-1.7-.56 2.28 2.28 0 0 0-2.1 1.1v10.9h-4.8v-15.4zM367.44 236a7.9 7.9 0 0 1-5.74-2.12 7.27 7.27 0 0 1-2.2-5.5V228a9.55 9.55 0 0 1 .88-4.18 6.43 6.43 0 0 1 2.56-2.8 7.72 7.72 0 0 1 4-1 6.67 6.67 0 0 1 5.12 2 7.9 7.9 0 0 1 1.9 5.62v1.87h-9.56a3.44 3.44 0 0 0 1.13 2 3.3 3.3 0 0 0 2.25.75 4.32 4.32 0 0 0 3.56-1.6l2.2 2.6a6.1 6.1 0 0 1-2.55 2 8.6 8.6 0 0 1-3.56.75zm-.54-12.28c-1.4 0-2.24.93-2.5 2.8h4.83v-.38a2.37 2.37 0 0 0-.58-1.8 2.33 2.33 0 0 0-1.75-.6zM383.94 231.4a1.1 1.1 0 0 0-.65-1 9.56 9.56 0 0 0-2.44-.76 11.14 11.14 0 0 1-3-1 5 5 0 0 1-1.8-1.57 3.84 3.84 0 0 1-.6-2.12 4.27 4.27 0 0 1 1.75-3.5 7.2 7.2 0 0 1 4.6-1.38 8 8 0 0 1 4.9 1.38 4.33 4.33 0 0 1 1.85 3.64h-4.8c0-1.25-.66-1.86-1.96-1.86a1.93 1.93 0 0 0-1.28.42 1.3 1.3 0 0 0-.5 1 1.2 1.2 0 0 0 .6 1 5.86 5.86 0 0 0 2 .66 16.7 16.7 0 0 1 2.43.6q3.48 1.2 3.48 4.3a4 4 0 0 1-1.88 3.43 8.16 8.16 0 0 1-4.85 1.33 8.28 8.28 0 0 1-3.53-.72 5.88 5.88 0 0 1-2.42-1.93 4.4 4.4 0 0 1-.87-2.58h4.48a1.86 1.86 0 0 0 .72 1.56 2.9 2.9 0 0 0 1.75.5 2.24 2.24 0 0 0 1.47-.4 1.27 1.27 0 0 0 .54-1zM272.88 270.75v-12.08h-2.24v-3.33h2.24v-1.23a5.32 5.32 0 0 1 1.55-4.08 6.17 6.17 0 0 1 4.36-1.45 9.56 9.56 0 0 1 2.24.3v3.53a4.65 4.65 0 0 0-1.18-.12c-1.45 0-2.18.62-2.18 1.88v1.18h3v3.33h-3v12.08zM281.78 262.9a9.07 9.07 0 0 1 .9-4.1 6.38 6.38 0 0 1 2.57-2.78 7.86 7.86 0 0 1 3.95-1 7.1 7.1 0 0 1 5.46 2.15 8.2 8.2 0 0 1 2 5.83v.17a8 8 0 0 1-2 5.72 7.1 7.1 0 0 1-5.42 2.1 7.2 7.2 0 0 1-5.3-2 7.7 7.7 0 0 1-2.14-5.33zm4.8.3a5.72 5.72 0 0 0 .67 3.14 2.24 2.24 0 0 0 2 1q2.56 0 2.62-3.94v-.5q0-4.13-2.65-4.13-2.4 0-2.6 3.57zM308.1 259.68l-1.6-.1c-1.5 0-2.47.46-2.9 1.4v9.77h-4.8v-15.4h4.5l.16 2a3.72 3.72 0 0 1 3.38-2.28 4.85 4.85 0 0 1 1.34.17zM317.28 271a7.9 7.9 0 0 1-5.74-2.12 7.3 7.3 0 0 1-2.2-5.5V263a9.55 9.55 0 0 1 .88-4.18 6.43 6.43 0 0 1 2.56-2.8 7.72 7.72 0 0 1 4-1 6.7 6.7 0 0 1 5.13 2 7.94 7.94 0 0 1 1.9 5.62v1.87h-9.56a3.44 3.44 0 0 0 1.13 2 3.32 3.32 0 0 0 2.25.75 4.32 4.32 0 0 0 3.56-1.6l2.2 2.6a6.1 6.1 0 0 1-2.55 2 8.6 8.6 0 0 1-3.55.75zm-.54-12.28c-1.4 0-2.24.93-2.5 2.8h4.83v-.38a2.37 2.37 0 0 0-.58-1.8 2.33 2.33 0 0 0-1.76-.58zM330.1 255.34l.17 1.8a5.23 5.23 0 0 1 4.4-2.1 4.4 4.4 0 0 1 3.6 1.45 6.9 6.9 0 0 1 1.23 4.32v9.93h-4.8V261a2.6 2.6 0 0 0-.48-1.7 2.18 2.18 0 0 0-1.7-.56 2.3 2.3 0 0 0-2.1 1.1v10.9h-4.8v-15.4zM350.23 266.42a1.1 1.1 0 0 0-.64-1 9.82 9.82 0 0 0-2.45-.77 11.4 11.4 0 0 1-3-1.05 4.9 4.9 0 0 1-1.78-1.57 3.76 3.76 0 0 1-.6-2.12 4.24 4.24 0 0 1 1.74-3.5 7.2 7.2 0 0 1 4.6-1.37 8 8 0 0 1 4.9 1.4 4.33 4.33 0 0 1 1.85 3.62h-4.82c0-1.24-.65-1.85-1.95-1.85a2 2 0 0 0-1.27.42 1.3 1.3 0 0 0-.5 1 1.18 1.18 0 0 0 .63 1 5.78 5.78 0 0 0 2 .66 16.53 16.53 0 0 1 2.4.6q3.5 1.2 3.5 4.3a4 4 0 0 1-1.88 3.43 8.18 8.18 0 0 1-4.85 1.34 8.5 8.5 0 0 1-3.54-.7 6 6 0 0 1-2.42-1.95 4.4 4.4 0 0 1-.87-2.6h4.5a1.88 1.88 0 0 0 .7 1.57 2.92 2.92 0 0 0 1.75.5 2.3 2.3 0 0 0 1.48-.4 1.26 1.26 0 0 0 .53-.95zM364.56 271a7.93 7.93 0 0 1-5.74-2.12 7.3 7.3 0 0 1-2.2-5.5V263a9.55 9.55 0 0 1 .88-4.18 6.5 6.5 0 0 1 2.56-2.8 7.72 7.72 0 0 1 4-1 6.7 6.7 0 0 1 5.13 2 7.94 7.94 0 0 1 1.87 5.62v1.87h-9.55a3.44 3.44 0 0 0 1.13 2 3.32 3.32 0 0 0 2.25.75 4.3 4.3 0 0 0 3.56-1.6l2.2 2.6a6 6 0 0 1-2.55 2 8.6 8.6 0 0 1-3.54.75zm-.56-12.24c-1.4 0-2.24.93-2.5 2.8h4.84v-.38a2.37 2.37 0 0 0-.6-1.8 2.33 2.33 0 0 0-1.74-.62zM381.06 266.42a1.12 1.12 0 0 0-.64-1 9.82 9.82 0 0 0-2.44-.77 11.27 11.27 0 0 1-3-1.05 4.9 4.9 0 0 1-1.78-1.57 3.77 3.77 0 0 1-.62-2.12 4.25 4.25 0 0 1 1.76-3.5 7.18 7.18 0 0 1 4.58-1.37 7.92 7.92 0 0 1 4.9 1.4 4.3 4.3 0 0 1 1.86 3.62h-4.78c0-1.24-.65-1.85-1.95-1.85a1.94 1.94 0 0 0-1.27.42 1.3 1.3 0 0 0-.5 1 1.18 1.18 0 0 0 .62 1 5.7 5.7 0 0 0 2 .66 16.87 16.87 0 0 1 2.4.6q3.5 1.2 3.5 4.3a4 4 0 0 1-1.88 3.43A8.2 8.2 0 0 1 379 271a8.46 8.46 0 0 1-3.53-.7 6 6 0 0 1-2.42-1.95 4.4 4.4 0 0 1-.87-2.58h4.5a1.85 1.85 0 0 0 .7 1.56 2.92 2.92 0 0 0 1.75.5 2.3 2.3 0 0 0 1.48-.4 1.28 1.28 0 0 0 .46-1z" class="cls-1"/><path d="M248 149.3a115.94 115.94 0 1 0 193 115.2" class="cls-6"/><path d="M448.92 281.02l-8.44-14.5-14.5 8.43 2.57-9.74 14.5-8.43 8.44 14.5-2.58 9.75z" class="cls-7"/></svg>