<svg id="Capa_1" data-name="Capa 1" xmlns="http://www.w3.org/2000/svg" xmlns:xlink="http://www.w3.org/1999/xlink" viewBox="0 0 75 75"><defs><style>.cls-1,.cls-2,.cls-3{fill:none;stroke-miterlimit:10;}.cls-1,.cls-3{stroke-width:2.5px;}.cls-1{stroke:url(#Degradado_sin_nombre_5);}.cls-2,.cls-3{stroke:#cdcccc;}.cls-2{stroke-width:2.13px;}</style><linearGradient id="Degradado_sin_nombre_5" x1="42.48" y1="29.92" x2="73.01" y2="29.92" gradientUnits="userSpaceOnUse"><stop offset="0" stop-color="#e68e24"/><stop offset="1" stop-color="#ca4727"/></linearGradient></defs><title>contacta</title><path class="cls-1" d="M43.4,15A16.34,16.34,0,1,1,62.49,40.76V48.5L56,42.35h-.57A16.24,16.24,0,0,1,50,41.42"/><path class="cls-2" d="M27.36,8.85A24.12,24.12,0,0,0,16.92,54.71V66.15l9.61-9.09.83,0a24.12,24.12,0,0,0,0-48.23Z"/><path class="cls-3" d="M27.36,8.85A24.12,24.12,0,0,0,16.92,54.71V66.15l9.61-9.09.83,0a24.12,24.12,0,0,0,0-48.23Z"/></svg>