<svg id="Capa_1" data-name="Capa 1" xmlns="http://www.w3.org/2000/svg" xmlns:xlink="http://www.w3.org/1999/xlink" viewBox="0 0 40 40"><defs><style>.cls-1{fill:url(#linear-gradient);}.cls-2{fill:url(#linear-gradient-2);}</style><linearGradient id="linear-gradient" x1="15.08" y1="20" x2="24.92" y2="20" gradientUnits="userSpaceOnUse"><stop offset="0" stop-color="#e68e24"/><stop offset="1" stop-color="#ca4727"/></linearGradient><linearGradient id="linear-gradient-2" x1="2.2" x2="37.8" xlink:href="#linear-gradient"/></defs><title>direccion-tecnica</title><path class="cls-1" d="M20,24.92A4.92,4.92,0,1,1,24.92,20,4.93,4.93,0,0,1,20,24.92Zm0-7.34A2.42,2.42,0,1,0,22.42,20,2.43,2.43,0,0,0,20,17.58Z"/><path class="cls-2" d="M22.57,37.8H17.63a2.55,2.55,0,0,1-2.55-2.55V33.88c-.42-.15-.83-.31-1.23-.49l-1,1a2.53,2.53,0,0,1-3.6,0L5.74,30.91a2.53,2.53,0,0,1,0-3.6l1-1c-.19-.4-.37-.81-.52-1.22H4.75A2.55,2.55,0,0,1,2.2,22.57V17.63a2.55,2.55,0,0,1,2.55-2.55H6.12c.15-.42.31-.83.49-1.23l-1-1a2.54,2.54,0,0,1,0-3.6L9.09,5.74a2.59,2.59,0,0,1,3.6,0l1,1c.4-.19.81-.37,1.22-.52V4.75A2.55,2.55,0,0,1,17.43,2.2h4.94a2.55,2.55,0,0,1,2.55,2.55V6.12c.42.15.83.31,1.23.49l1-1a2.54,2.54,0,0,1,3.6,0l3.49,3.49a2.54,2.54,0,0,1,0,3.6l-1,1c.19.4.37.81.52,1.22h1.44a2.55,2.55,0,0,1,2.55,2.55v4.94a2.55,2.55,0,0,1-2.55,2.55H33.88c-.15.42-.31.83-.49,1.23l1,1a2.53,2.53,0,0,1,0,3.6l-3.49,3.49a2.54,2.54,0,0,1-3.6,0l-1-1c-.4.19-.81.37-1.22.52v1.44A2.55,2.55,0,0,1,22.57,37.8Zm-9.19-7.48.82.45a12.37,12.37,0,0,0,2.47,1l.91.26v3.23l5,0L22.62,32l.89-.27a11.71,11.71,0,0,0,2.45-1l.83-.46,2.28,2.29L32.64,29l-2.31-2.38.44-.82a12.37,12.37,0,0,0,1-2.47l.26-.91h3.23l0-5,0-.05H32l-.27-.89a11.71,11.71,0,0,0-1-2.45l-.46-.83,2.29-2.28L29,7.36,26.62,9.68l-.82-.45a12.37,12.37,0,0,0-2.47-1L22.42,8V4.75l-5,0L17.38,8l-.89.27a11.49,11.49,0,0,0-2.45,1l-.83.46L10.93,7.5,7.36,11l2.32,2.38-.45.82a12.37,12.37,0,0,0-1,2.47L8,17.58H4.75l0,5L8,22.62l.27.89a11.49,11.49,0,0,0,1,2.45l.46.83L7.5,29.07,11,32.64Z"/></svg>