<svg id="Capa_1" data-name="Capa 1" xmlns="http://www.w3.org/2000/svg" viewBox="0 0 269.82 97.55"><defs><style>.cls-1{fill:#f1f1f1;}.cls-2{fill:#f4cc9c;}.cls-3,.cls-4{fill:none;}.cls-10,.cls-3,.cls-4,.cls-5{stroke:#e68e24;stroke-linecap:round;stroke-linejoin:round;}.cls-10,.cls-3,.cls-5{stroke-width:2.5px;}.cls-4{stroke-width:1.5px;}.cls-5,.cls-6{fill:#fff;}.cls-10,.cls-7{fill:#edb066;}.cls-8{fill:#ecaa5b;}.cls-9{fill:#eeeded;}.cls-11{fill:#fac05a;}.cls-12{fill:#ffeea3;}.cls-13{fill:#e68e24;}</style></defs><title>due-diligence</title><circle class="cls-1" cx="51.95" cy="48.77" r="45.01"/><path class="cls-2" d="M81.38,93.79V85.47c0-13.82-13.19-25.13-29.3-25.13h0C36,60.34,22.79,71.65,22.79,85.47v8.32Z"/><path class="cls-3" d="M81.38,93.79V85.47c0-13.82-13.19-25.13-29.3-25.13h0C36,60.34,22.79,71.65,22.79,85.47v8.32Z"/><line class="cls-4" x1="35.88" y1="84.9" x2="46.5" y2="84.9"/><path class="cls-5" d="M57.63,63.33l0-10.3a5.58,5.58,0,0,0-5.58-5.58h0A5.58,5.58,0,0,0,46.5,53v9.38l4.39,4.06a1.16,1.16,0,0,0,1.41.14Z"/><path class="cls-6" d="M61.08,55.21,55.17,57.6a8.21,8.21,0,0,1-6.16,0L43.1,55.21A19,19,0,0,1,31.24,37.59V21.17A17.42,17.42,0,0,1,48.66,3.75h6.86A17.42,17.42,0,0,1,72.94,21.17V37.59A19,19,0,0,1,61.08,55.21Z"/><path class="cls-7" d="M34.11,11.6s.48,3.93,3.1,5.63a1.43,1.43,0,0,1,.17,2.34,20.5,20.5,0,0,0-5.22,6.85S29.88,16.06,34.11,11.6Z"/><path class="cls-7" d="M70,11.6s-.48,3.93-3.1,5.63a1.44,1.44,0,0,0-.17,2.34A20.63,20.63,0,0,1,72,26.42S74.22,16.06,70,11.6Z"/><path class="cls-3" d="M72.54,20.56V38A18.42,18.42,0,0,1,61,55.14l-6.27,2.54a6.88,6.88,0,0,1-5.27,0l-6.27-2.54A18.44,18.44,0,0,1,31.63,38V20.56A16.83,16.83,0,0,1,48.45,3.76h7.28A16.82,16.82,0,0,1,72.54,20.56Z"/><path class="cls-4" d="M34.11,11.6s.48,3.93,3.1,5.63a1.43,1.43,0,0,1,.17,2.34,20.5,20.5,0,0,0-5.22,6.85S29.88,16.06,34.11,11.6Z"/><path class="cls-4" d="M70,11.6s-.48,3.93-3.1,5.63a1.44,1.44,0,0,0-.17,2.34A20.63,20.63,0,0,1,72,26.42S74.22,16.06,70,11.6Z"/><path class="cls-6" d="M76.7,34.32a2.79,2.79,0,0,1-2.79,2.79h0a2.79,2.79,0,0,1-2.79-2.79V31.61a2.79,2.79,0,0,1,2.79-2.79h0a2.79,2.79,0,0,1,2.79,2.79Z"/><path class="cls-8" d="M95,72.16a2.62,2.62,0,1,1-2.62-2.62A2.62,2.62,0,0,1,95,72.16Z"/><path class="cls-8" d="M80.06,60.34a1.49,1.49,0,1,1-1.49-1.49A1.49,1.49,0,0,1,80.06,60.34Z"/><path class="cls-8" d="M89.92,34.29a1.88,1.88,0,1,1-1.87-1.88A1.88,1.88,0,0,1,89.92,34.29Z"/><path class="cls-7" d="M53.42,40.89l.83-.57a2.79,2.79,0,0,1,3.87.67c1.35,1.87,3.46,4.26,5.7,4.72a.3.3,0,0,1,.08.58c-2.62,1.07-8.83,2.84-11.81-2.52H52c-3,5.37-9.12,3.47-11.74,2.4a.3.3,0,0,1,.08-.58c2.24-.46,4.35-2.86,5.7-4.73a2.8,2.8,0,0,1,3.87-.66l.83.57Z"/><path class="cls-4" d="M53.42,40.89l.83-.57a2.79,2.79,0,0,1,3.87.67c1.35,1.87,3.46,4.26,5.7,4.72a.3.3,0,0,1,.08.58c-2.62,1.07-8.83,2.84-11.81-2.52H52c-3,5.37-9.12,3.47-11.74,2.4a.3.3,0,0,1,.08-.58c2.24-.46,4.35-2.86,5.7-4.73a2.8,2.8,0,0,1,3.87-.66l.83.57Z"/><line class="cls-4" x1="50.32" y1="51.86" x2="54.32" y2="51.86"/><path class="cls-3" d="M72.56,27.87h.31a5.41,5.41,0,0,1,5.41,5.41v0a5.41,5.41,0,0,1-5.41,5.41h-.31a0,0,0,0,1,0,0V27.87A0,0,0,0,1,72.56,27.87Z"/><line class="cls-4" x1="39.9" y1="24.25" x2="46.5" y2="24.25"/><line class="cls-4" x1="57.38" y1="24.25" x2="63.98" y2="24.25"/><polyline class="cls-4" points="50.32 22.48 50.32 35.52 55.7 35.52"/><path class="cls-7" d="M51.54,67.08l-7.95,9.4a.61.61,0,0,1-1.06-.27L39.9,62.64l5.16-1.56Z"/><path class="cls-4" d="M51.54,67.08l-7.95,9.4a.61.61,0,0,1-1.06-.27L39.9,62.64l5.16-1.56Z"/><path class="cls-7" d="M51.54,67.08l8.86,9.4a.61.61,0,0,0,1.06-.27l2.63-13.57-5.16-1.56Z"/><path class="cls-4" d="M51.54,67.08l8.86,9.4a.61.61,0,0,0,1.06-.27l2.63-13.57-5.16-1.56Z"/><line class="cls-3" x1="110.29" y1="51.86" x2="170.83" y2="51.86"/><circle class="cls-5" cx="140.56" cy="51.86" r="5.2"/><path class="cls-9" d="M252.1,77.07c0,.21-.43.44-1.23.69-3.63,1.15-16.27,1.31-22.52,1.35-9.14,0-18.82.14-27.69-.31-6.71-.35-14.52-1.25-7.87-2.55,2.16-.42,8.1-.69,11.18-.88,7-.44,14.32-.77,21.75-.72,5.4,0,10.46.34,15.54.64C245.84,75.56,252.33,76.11,252.1,77.07Z"/><path class="cls-10" d="M252.88,44.48a2.61,2.61,0,0,1,3.52-.23A3.88,3.88,0,0,1,257.69,48c-.11.71-.39,1.8-1.21,2a.75.75,0,0,1-.89-.62,1.07,1.07,0,0,1,.74-1.15c1.4-.51,3.13.46,4,1.54a4.38,4.38,0,0,1,.29,4.76c-.12.21.35.19.44,0a4.52,4.52,0,0,0-.68-5.41,4.72,4.72,0,0,0-2.47-1.28,2.73,2.73,0,0,0-2.38.52,1.11,1.11,0,0,0,.17,1.83,1.63,1.63,0,0,0,1.88-.63,4.33,4.33,0,0,0-.37-5.16,3.25,3.25,0,0,0-4.69,0c-.19.22.26.25.38.11Z"/><path class="cls-10" d="M252.75,48.27c0-13.16-14.13-23.83-31.56-23.83h-1.54A37.83,37.83,0,0,0,201,30l-.24.15c-.15.1-2.53-4.51-2.54-4.51-.36,2.45-1.6,7.73-2,8.07l-.22.21a1.59,1.59,0,0,1-.13.13,23.7,23.7,0,0,0-5,7.58l-.06.16c-.06.18-.13.35-.19.53v0c-.05.17-.11.33-.16.5l-.06.21c0,.12-.07.24-.1.36l0,.09H185.8a2.09,2.09,0,0,0-2.09,2.1v8a5,5,0,0,0,5,5h4.06c3.18,5,8.58,9,15.23,11.29v5.32a2,2,0,0,0,2,2h4.13a2,2,0,0,0,2-2V71.78a41.37,41.37,0,0,0,10.11,0v3.45a2,2,0,0,0,2,2h4.12a2,2,0,0,0,2-2V69.91C245.23,66.14,252.75,57.87,252.75,48.27Z"/><path class="cls-2" d="M251.59,48.27c0-6-3.07-11.47-7.47-15.39a34.89,34.89,0,0,0-18.68-8.09,35.59,35.59,0,0,0-14.23.87,36.55,36.55,0,0,0-8,3c-.86.45-1.7.93-2.52,1.46-.15.1-2.53-4.51-2.54-4.51-.36,2.45-1.6,7.73-2,8.07a23.54,23.54,0,0,0-2.94,3.44,22.63,22.63,0,0,0-2,3.52,19.23,19.23,0,0,0-1,2.84H185.8a2.09,2.09,0,0,0-2.09,2.1v6.86c0,2.76,2.24,3.84,5,3.84h4.06a28.32,28.32,0,0,0,14.29,11,1.44,1.44,0,0,1,.94,1.34v4.32a2,2,0,0,0,2,2h3a2,2,0,0,0,2-2V70.4a.84.84,0,0,1,.93-.84c1.35.13,2.73.2,4.13.2s4.13-.08,5.57-.23a.59.59,0,0,1,.65.59v2.79a2,2,0,0,0,2,2h3a2,2,0,0,0,2-2V68.69a1.57,1.57,0,0,1,1-1.47C244.53,63.36,251.58,57.56,251.59,48.27Z"/><path class="cls-6" d="M232.1,31.34a41.85,41.85,0,0,0-22.37,0,1.58,1.58,0,0,1-2-.9h0a1.57,1.57,0,0,1,1.2-1.91,44.85,44.85,0,0,1,24,0,1.57,1.57,0,0,1,1.2,1.91h0A1.6,1.6,0,0,1,232.1,31.34Z"/><ellipse id="_Trazado_" data-name="&lt;Trazado&gt;" class="cls-11" cx="221.69" cy="22.72" rx="12.03" ry="11.61" transform="matrix(0.99, -0.14, 0.14, 0.99, -0.96, 32.18)"/><ellipse id="_Trazado_2" data-name="&lt;Trazado&gt;" class="cls-12" cx="220.24" cy="21.77" rx="12.03" ry="11.61" transform="translate(-0.84 31.97) rotate(-8.29)"/><path class="cls-11" d="M208.41,20.8a11.78,11.78,0,0,1,8.71-10.1,12,12,0,0,1,12.78,4.53,11.28,11.28,0,0,1-.25,13.19,12.12,12.12,0,0,1-13,4.26,11.51,11.51,0,0,1-8.29-10.09,11.89,11.89,0,0,1,0-1.79c0-.25-.45-.2-.47,0A11.72,11.72,0,0,0,215,32.5a12.77,12.77,0,0,0,13.86-2.56,11.65,11.65,0,0,0,2.32-13.52A12.29,12.29,0,0,0,218.79,10a12.42,12.42,0,0,0-10.53,9,11.74,11.74,0,0,0-.32,1.85C207.91,21.08,208.39,21,208.41,20.8Z"/><path class="cls-11" d="M210.82,21a9.38,9.38,0,0,1,6.94-8.06,9.55,9.55,0,0,1,10.16,3.68,9,9,0,0,1-.21,10.47,9.61,9.61,0,0,1-10.28,3.4A9.18,9.18,0,0,1,210.82,21c0-.23-.45-.15-.47,0A9.35,9.35,0,0,0,216,30.36a10.31,10.31,0,0,0,11.14-2.11A9.29,9.29,0,0,0,229,17.48,10,10,0,0,0,210.35,21C210.33,21.25,210.8,21.17,210.82,21Z"/><path class="cls-11" d="M221,16.64l-.05.6a3.94,3.94,0,0,1,1.05.32,2.29,2.29,0,0,1,1.09,1.23,1.17,1.17,0,0,1,.1.56.6.6,0,0,1-.25.47.74.74,0,0,1-1.22-.46,1.29,1.29,0,0,0-.85-1l-.18,2.35a9.81,9.81,0,0,1,1.12.42,2.31,2.31,0,0,1,.73.5,2.11,2.11,0,0,1,.62,1.73,2.48,2.48,0,0,1-.4,1.18,2.52,2.52,0,0,1-1,.86,3.39,3.39,0,0,1-1.47.33l-.11,1.41a1.46,1.46,0,0,1-.1.48.32.32,0,0,1-.31.13.33.33,0,0,1-.28-.14.73.73,0,0,1-.06-.39l.12-1.52a4.12,4.12,0,0,1-1.17-.38,2.75,2.75,0,0,1-.8-.65,2.31,2.31,0,0,1-.45-.76,2,2,0,0,1-.11-.75.72.72,0,0,1,.26-.48.85.85,0,0,1,1,0,.64.64,0,0,1,.23.35,5.64,5.64,0,0,0,.22.73,1.36,1.36,0,0,0,.32.47,1.44,1.44,0,0,0,.6.34l.2-2.61a8.28,8.28,0,0,1-1.27-.55,2,2,0,0,1-1-2,2.2,2.2,0,0,1,.76-1.55,3,3,0,0,1,1.9-.6l.05-.6c0-.31.16-.46.4-.45S221,16.33,221,16.64Zm-1,3.81.17-2.15a2,2,0,0,0-.79.32,1,1,0,0,0-.13,1.37A2.31,2.31,0,0,0,220,20.45Zm.61,1.72-.19,2.47a1.76,1.76,0,0,0,.95-.4,1.16,1.16,0,0,0,.38-.78,1,1,0,0,0-.25-.78A2.61,2.61,0,0,0,220.59,22.17Z"/><ellipse class="cls-2" cx="220.92" cy="36.59" rx="18.13" ry="6.8"/><circle class="cls-13" cx="199.29" cy="42.57" r="1.4"/></svg>