<svg id="Capa_1" data-name="Capa 1" xmlns="http://www.w3.org/2000/svg" viewBox="0 0 75 75"><defs><style>.cls-1{fill:#f4cc9c;}.cls-1,.cls-2{stroke:#e68e24;stroke-linecap:round;stroke-linejoin:round;stroke-width:2.5px;}.cls-2{fill:none;}</style></defs><title>engagement-reviews</title><polyline class="cls-1" points="37.79 39.17 39.21 31.11 30.23 22.27 42.72 20.52 48.36 9.24 53.88 20.58 66.35 22.46 57.27 31.21 59.34 43.65 48.21 37.72 40.84 41.55"/><path class="cls-2" d="M43.71,48.05c0-6.55-7.85-11.85-17.53-11.85S8.65,41.5,8.65,48.05,16.5,59.91,26.18,59.91c.28,0,.55,0,.83,0l3.22,5.88,4.87-7.5h0C40.24,56.19,43.71,52.4,43.71,48.05Z"/><line class="cls-2" x1="15.95" y1="48.3" x2="18.3" y2="48.3"/><line class="cls-2" x1="25.01" y1="48.3" x2="27.36" y2="48.3"/><line class="cls-2" x1="34.06" y1="48.3" x2="36.42" y2="48.3"/></svg>