<svg id="Capa_1" data-name="Capa 1" xmlns="http://www.w3.org/2000/svg" xmlns:xlink="http://www.w3.org/1999/xlink" viewBox="0 0 40 40"><defs><style>.cls-1{fill:url(#linear-gradient);}.cls-2{fill:url(#linear-gradient-2);}</style><linearGradient id="linear-gradient" x1="11.34" y1="11.32" x2="28.66" y2="11.32" gradientUnits="userSpaceOnUse"><stop offset="0" stop-color="#e68e24"/><stop offset="1" stop-color="#ca4727"/></linearGradient><linearGradient id="linear-gradient-2" x1="9.75" y1="29.09" x2="30.25" y2="29.09" xlink:href="#linear-gradient"/></defs><title>equipos</title><path class="cls-1" d="M20,20a8.66,8.66,0,1,1,8.66-8.66A8.68,8.68,0,0,1,20,20ZM20,5.16a6.16,6.16,0,1,0,6.16,6.16A6.16,6.16,0,0,0,20,5.16Z"/><path class="cls-2" d="M30.25,36.09h-2.5V32.34a7.75,7.75,0,0,0-15.5,0v3.75H9.75V32.34a10.25,10.25,0,0,1,20.5,0Z"/></svg>