<svg id="Capa_1" data-name="Capa 1" xmlns="http://www.w3.org/2000/svg" xmlns:xlink="http://www.w3.org/1999/xlink" viewBox="0 0 40 40"><defs><style>.cls-1{fill:url(#linear-gradient);}.cls-2{fill:url(#linear-gradient-2);}.cls-3{fill:url(#linear-gradient-3);}.cls-4{fill:url(#linear-gradient-4);}.cls-5{fill:url(#linear-gradient-5);}.cls-6{fill:url(#linear-gradient-6);}</style><linearGradient id="linear-gradient" x1="3.25" y1="26.5" x2="23.75" y2="26.5" gradientUnits="userSpaceOnUse"><stop offset="0" stop-color="#e68e24"/><stop offset="1" stop-color="#ca4727"/></linearGradient><linearGradient id="linear-gradient-2" x1="29.5" y1="33.13" x2="36.75" y2="33.13" xlink:href="#linear-gradient"/><linearGradient id="linear-gradient-3" x1="3.25" y1="6.88" x2="10.5" y2="6.88" xlink:href="#linear-gradient"/><linearGradient id="linear-gradient-4" x1="16.83" y1="4.5" x2="23.17" y2="4.5" xlink:href="#linear-gradient"/><linearGradient id="linear-gradient-5" x1="29.5" y1="6.88" x2="36.75" y2="6.88" xlink:href="#linear-gradient"/><linearGradient id="linear-gradient-6" x1="34.25" y1="20" x2="36.75" y2="20" xlink:href="#linear-gradient"/></defs><title>escalabilidad</title><path class="cls-1" d="M3.25,16.83V36.75h20.5V16.25H3.25Zm18,17.42H5.75V18.75h15.5Z"/><polygon class="cls-2" points="34.25 34.25 29.5 34.25 29.5 36.75 36.75 36.75 36.75 29.5 34.25 29.5 34.25 34.25"/><polygon class="cls-3" points="5.75 5.75 10.5 5.75 10.5 3.25 3.25 3.25 3.25 10.5 5.75 10.5 5.75 5.75"/><rect class="cls-4" x="16.83" y="3.25" width="6.33" height="2.5"/><polygon class="cls-5" points="29.5 3.25 29.5 5.75 34.25 5.75 34.25 10.5 36.75 10.5 36.75 3.25 29.5 3.25"/><rect class="cls-6" x="34.25" y="16.83" width="2.5" height="6.33"/></svg>