<svg id="Capa_1" data-name="Capa 1" xmlns="http://www.w3.org/2000/svg" viewBox="0 0 78.38 78.38"><defs><style>.cls-1{fill:#f4cc9c;}.cls-2,.cls-4,.cls-5{fill:none;}.cls-2,.cls-3,.cls-5{stroke:#e68e24;stroke-linecap:round;stroke-linejoin:round;}.cls-2,.cls-5{stroke-width:2.5px;}.cls-3{fill:#fff;stroke-width:1.5px;}.cls-5{stroke-dasharray:5.93 5.93;}.cls-6{font-size:9.18px;fill:#e68e24;font-family:Roboto-Black, Roboto;}</style></defs><title>escalabilidad_1</title><rect class="cls-1" x="5.01" y="58.66" width="68.36" height="17.23" rx="2.96" ry="2.96"/><rect class="cls-2" x="5.01" y="58.66" width="68.36" height="17.23" rx="2.96" ry="2.96"/><line class="cls-3" x1="12.47" y1="67.27" x2="21.5" y2="67.27"/><circle class="cls-3" cx="56.83" cy="67.27" r="1.72"/><circle class="cls-3" cx="64.2" cy="67.27" r="1.72"/><rect class="cls-4" x="5.01" y="41.43" width="68.36" height="17.23" rx="2.96" ry="2.96"/><rect class="cls-2" x="5.01" y="41.43" width="68.36" height="17.23" rx="2.96" ry="2.96"/><line class="cls-3" x1="12.47" y1="50.05" x2="21.5" y2="50.05"/><circle class="cls-3" cx="56.83" cy="50.05" r="1.72"/><circle class="cls-3" cx="64.2" cy="50.05" r="1.72"/><rect class="cls-1" x="5.01" y="24.21" width="68.36" height="17.23" rx="2.96" ry="2.96"/><rect class="cls-2" x="5.01" y="24.21" width="68.36" height="17.23" rx="2.96" ry="2.96"/><rect class="cls-5" x="5.01" y="2.5" width="68.36" height="17.23" rx="2.96" ry="2.96"/><line class="cls-3" x1="12.47" y1="32.82" x2="21.5" y2="32.82"/><circle class="cls-3" cx="56.83" cy="32.82" r="1.72"/><circle class="cls-3" cx="64.2" cy="32.82" r="1.72"/><text class="cls-6" transform="translate(8.55 14.2)">+10 Scalability</text></svg>