<svg id="Capa_1" data-name="Capa 1" xmlns="http://www.w3.org/2000/svg" xmlns:xlink="http://www.w3.org/1999/xlink" viewBox="0 0 90 90"><defs><style>.cls-1{fill:#ccc;}.cls-2{fill:url(#Degradado_sin_nombre_17);}.cls-3{fill:url(#Degradado_sin_nombre_17-2);}</style><linearGradient id="Degradado_sin_nombre_17" x1="46.78" y1="63.85" x2="69.15" y2="63.85" gradientUnits="userSpaceOnUse"><stop offset="0" stop-color="#e68e24"/><stop offset="1" stop-color="#ca4727"/></linearGradient><linearGradient id="Degradado_sin_nombre_17-2" x1="53.35" y1="56.98" x2="62.58" y2="56.98" xlink:href="#Degradado_sin_nombre_17"/></defs><title>experiencia</title><rect class="cls-1" x="14.19" y="44.27" width="2.5" height="6.72" transform="translate(-29.16 24.87) rotate(-45)"/><rect class="cls-1" x="12.08" y="46.39" width="6.72" height="2.5" transform="translate(-29.16 24.87) rotate(-45)"/><rect class="cls-1" x="69.44" y="29.47" width="2.5" height="6.72"/><rect class="cls-1" x="67.33" y="31.58" width="6.72" height="2.5"/><rect class="cls-1" x="18.95" y="17.88" width="2.5" height="5.84" transform="translate(-5.82 33.6) rotate(-72.03)"/><rect class="cls-1" x="23.08" y="16.25" width="2.5" height="2.77" transform="translate(-5.62 20.08) rotate(-40.6)"/><rect class="cls-1" x="61.4" y="12.71" width="5.84" height="2.5" transform="translate(-1.17 20.53) rotate(-17.97)"/><rect class="cls-1" x="58.8" y="9.54" width="2.77" height="2.5" transform="translate(12.83 49.47) rotate(-49.4)"/><path class="cls-1" d="M43.11,35.17A12.06,12.06,0,1,0,31.05,23.11,12.07,12.07,0,0,0,43.11,35.17Zm0-21.62a9.56,9.56,0,1,1-9.56,9.56A9.57,9.57,0,0,1,43.11,13.55Z"/><path class="cls-1" d="M43.11,41.81A15.33,15.33,0,0,0,27.79,57.13v12h2.5v-12a12.81,12.81,0,0,1,22-8.94,10.81,10.81,0,0,1,2.4-1.08A15.28,15.28,0,0,0,43.11,41.81Z"/><path class="cls-2" d="M69.15,57.8A11.19,11.19,0,0,0,54.68,47.11a10.81,10.81,0,0,0-2.4,1.08A11.15,11.15,0,0,0,52,67.27L50.82,81.08l6.94-5.61,6.93,5.61L63.5,67.51A11.19,11.19,0,0,0,69.15,57.8ZM61.69,75.43l-3.93-3.18-3.93,3.18.62-7A11.32,11.32,0,0,0,58,69a11,11,0,0,0,3.12-.45Zm-3.73-9q-.36,0-.72,0a8.14,8.14,0,0,1-1.31-.22,8.67,8.67,0,0,1-2.07-16.08,8.53,8.53,0,0,1,2.39-.86A8.85,8.85,0,0,1,58,49.12a8.68,8.68,0,1,1,0,17.36Z"/><polygon class="cls-3" points="59.39 55.48 57.97 52.59 56.54 55.48 53.35 55.94 55.66 58.19 55.11 61.37 57.96 59.87 60.81 61.37 60.27 58.2 62.58 55.95 59.39 55.48"/></svg>