<svg id="Capa_1" data-name="Capa 1" xmlns="http://www.w3.org/2000/svg" viewBox="0 0 75 75"><defs><style>.cls-1,.cls-3{fill:none;}.cls-1,.cls-2{stroke:#e68e24;stroke-linecap:round;stroke-linejoin:round;stroke-width:2.5px;}.cls-2{fill:#f4cc9c;}</style></defs><title>leader</title><line class="cls-1" x1="37.82" y1="27.1" x2="37.82" y2="10.87"/><line class="cls-1" x1="37.82" y1="68.35" x2="37.82" y2="31.73"/><path class="cls-2" d="M37.82,8.44s5.48-4,13.9,0V20.66s-7.49-3.79-13.9,0Z"/><path class="cls-2" d="M51.72,11.87S60,9.22,66.11,15.36c-3.18,2.42-4.92,3.86-4.92,3.86l4.92,7.88s-8.41-6-14.39-2.57Z"/><rect class="cls-3" x="14" y="38.3" width="12.33" height="30.05"/><line class="cls-1" x1="26.33" y1="38.3" x2="26.33" y2="68.35"/><line class="cls-1" x1="14" y1="68.35" x2="14" y2="38.3"/><path class="cls-1" d="M14,49.51H12.63a3.74,3.74,0,0,1-3.74-3.75V36.54a9.44,9.44,0,0,1,9.43-9.44H42.83s-.77,4.63-4.63,4.63H26.4v17"/><path class="cls-1" d="M26.4,48.75v-17H38.2c3.86,0,4.63-4.63,4.63-4.63H18.32a9.44,9.44,0,0,0-9.43,9.44v9.22a3.74,3.74,0,0,0,3.74,3.75H14V38.3"/><line class="cls-1" x1="20.09" y1="49.51" x2="20.09" y2="68.35"/><circle class="cls-1" cx="20.09" cy="17.18" r="6.31"/></svg>