<svg id="Capa_1" data-name="Capa 1" xmlns="http://www.w3.org/2000/svg" xmlns:xlink="http://www.w3.org/1999/xlink" viewBox="0 0 353.05 72.05"><defs><style>.cls-1{fill:#231f20;}.cls-2{fill:url(#linear-gradient);}.cls-3{fill:url(#linear-gradient-2);}</style><linearGradient id="linear-gradient" x1="95.42" y1="0.61" x2="45.97" y2="65.42" gradientUnits="userSpaceOnUse"><stop offset="0" stop-color="#e68e24"/><stop offset="1" stop-color="#ca4727"/></linearGradient><linearGradient id="linear-gradient-2" x1="107.34" y1="9.7" x2="57.89" y2="74.52" xlink:href="#linear-gradient"/></defs><title>logotipo</title><g id="_Grupo_" data-name="&lt;Grupo&gt;"><path id="_Trazado_compuesto_" data-name="&lt;Trazado compuesto&gt;" class="cls-1" d="M167,35.13a7.16,7.16,0,0,0,3.55-6.58,6.71,6.71,0,0,0-2.37-5.47c-1.57-1.3-4.22-2-7.93-2H147.69V50.66H160q5.4,0,8.48-2.11a7.34,7.34,0,0,0,3.08-6.5C171.53,38.39,170,36.09,167,35.13Zm-14.18-9.2h6.76c2.11,0,3.58.3,4.43.91a3.26,3.26,0,0,1,1.26,2.85,3.06,3.06,0,0,1-1.35,2.64,6.55,6.55,0,0,1-3.8.94h-7.3Zm11.86,19a9.82,9.82,0,0,1-5,1h-6.84V37.92H160a9.39,9.39,0,0,1,4.79.92,3.21,3.21,0,0,1,1.45,2.92A3.4,3.4,0,0,1,164.65,44.88Z"/><path id="_Trazado_" data-name="&lt;Trazado&gt;" class="cls-1" d="M231.2,37.37a10.38,10.38,0,0,1-1.82,6.41A6.27,6.27,0,0,1,224,46.19a7.27,7.27,0,0,1-5.69-2.47,9.43,9.43,0,0,1-2.2-6.52V21.12H211V37.83c0,4.17,1.24,7.39,3.73,9.69A13.17,13.17,0,0,0,224,51a13.65,13.65,0,0,0,4.52-.74,12.77,12.77,0,0,0,3.9-2.22,9.86,9.86,0,0,0,2.83-4,15.56,15.56,0,0,0,1-5.89v-17h-5.1Z"/><polygon id="_Trazado_2" data-name="&lt;Trazado&gt;" class="cls-1" points="267.15 21.12 242.21 21.12 242.21 25.93 252.13 25.93 252.13 50.66 257.23 50.66 257.23 25.93 267.15 25.93 267.15 21.12"/><polygon id="_Trazado_3" data-name="&lt;Trazado&gt;" class="cls-1" points="307.23 21.12 302.13 21.12 302.13 50.66 323.99 50.66 323.99 45.85 307.23 45.85 307.23 21.12"/><polygon id="_Trazado_4" data-name="&lt;Trazado&gt;" class="cls-1" points="335.63 45.85 335.63 38 351.37 38 351.37 33.36 335.63 33.36 335.63 25.93 352.47 25.93 352.47 21.12 330.53 21.12 330.53 50.66 352.89 50.66 352.89 45.85 335.63 45.85"/><path id="_Trazado_5" data-name="&lt;Trazado&gt;" class="cls-1" d="M199,35.68a8.59,8.59,0,0,0,1.77-5.36,10.25,10.25,0,0,0-.55-3.46A8.28,8.28,0,0,0,198.38,24a8.37,8.37,0,0,0-3.61-2.09,18.69,18.69,0,0,0-5.7-.76H174.69l3.6,4.81H189q3.54,0,5,1.14a3.88,3.88,0,0,1,1.45,3.25,4.27,4.27,0,0,1-1.64,3.44c-2,1.65-8.8,1.08-8.8,1.08L196.8,50.66h6.28l-8.86-11.82A8.78,8.78,0,0,0,199,35.68Z"/><polygon id="_Trazado_6" data-name="&lt;Trazado&gt;" class="cls-1" points="283.12 21.12 279.22 21.12 266.26 50.66 271.54 50.66 281.13 28.64 290.69 50.66 296.05 50.66 283.12 21.12"/></g><g id="_Grupo_2" data-name="&lt;Grupo&gt;"><path id="_Trazado_compuesto_2" data-name="&lt;Trazado compuesto&gt;" class="cls-2" d="M114.52,39.52c-.94-10-12.92-16.66-22.55-22.05-2.6-1.46-5.06-2.84-6.9-4.08-2.48-1.65-3.46-3-3.6-5.05a4.12,4.12,0,0,1,3.7-4.29A3.66,3.66,0,0,1,89,6.16a1.74,1.74,0,0,0,1.49,1c1.19,0,4.79,1.21,8.76,3.07s6.28,3.5,6.92,4.26a10.2,10.2,0,0,0-1.72,6.28h3.45A6.9,6.9,0,0,1,109.26,16a2.67,2.67,0,0,0,.14-2.77c-1.8-3.63-13.31-8.48-17.76-9.36A7.17,7.17,0,0,0,84.81.64,7.59,7.59,0,0,0,78,8.58c.28,3.93,2.75,6.08,5.11,7.66,2,1.32,4.48,2.73,7.15,4.22,8.92,5,20,11.21,20.8,19.39a9.68,9.68,0,0,1-3.24,8.52A8.15,8.15,0,0,1,101.23,50a18.6,18.6,0,0,0,.19-2.63A28.63,28.63,0,0,0,76.38,19a1.7,1.7,0,0,0-1.35.41,1.73,1.73,0,0,0-.58,1.29c0,5.45-1.4,8.73-8.54,9.37-11.84,1.06-20.26,3.39-26.27,8l0,0a46.56,46.56,0,0,1-16,8.71c-4.21,1.16-7.77,1.13-10.63-.09a6.08,6.08,0,0,0-1.77-5.31C8.74,39,4.53,39.14,2.3,39.78a1.72,1.72,0,0,0-.87,2.71,11.26,11.26,0,0,1,1,1.72c1,2,2.68,5.25,6.75,5.25a9.32,9.32,0,0,0,1.44-.12A15.54,15.54,0,0,0,17.88,51c4.64,0,9.68-1.64,14.42-4.09-3.2,6-5.08,14-6.23,24.56h3.45c1.59-14.36,4.48-22.86,9.6-28.31s13.35-8.49,27.09-9.72c9.1-.82,11.22-5.86,11.6-10.78A25.22,25.22,0,0,1,98,47.38a23.3,23.3,0,0,1-1.59,7.49c-1.3,3.88-2.65,7.9-.21,12.91a1.69,1.69,0,0,0,1.1.92,6.48,6.48,0,0,1,4,2.78H105c-.52-2.2-2.48-4.67-6-5.86-1.4-3.44-.47-6.21.68-9.66.28-.83.57-1.69.83-2.6a12.51,12.51,0,0,0,2.26.21A11.44,11.44,0,0,0,110,51,13.07,13.07,0,0,0,114.52,39.52ZM9.24,46c-1.87,0-2.64-1.18-3.69-3.23a5.21,5.21,0,0,1,3.32,1.05,2.39,2.39,0,0,1,.73,1.78Z"/><path id="_Trazado_7" data-name="&lt;Trazado&gt;" class="cls-3" d="M77.65,40.63H74.2c.38,5.95,3.14,9.33,5.82,12.6.77,1,1.54,1.9,2.27,2.92-4.15-.24-8-1.64-11.82-3a44.6,44.6,0,0,0-9.26-2.63c2.26-2.19,3.79-5.23,3.89-9.89H61.66C61.48,48,56.89,50,51.1,52.45s-12.32,5.3-14.68,14.14L36,68.26l1.67.44a6.42,6.42,0,0,1,4,2.78h3.66A8.42,8.42,0,0,0,40.21,66c2.23-6,7.11-8.15,12.24-10.36l1.84-.8,0,.08c4.6-2.25,9.41-.51,15,1.49,4.25,1.54,9,3.25,14.23,3.25l.77,0c1.33,2.89,2.13,6.56,1.8,11.88h3.44c.65-11.2-3.34-16.09-6.87-20.41C80.19,48,78,45.34,77.65,40.63Z"/></g></svg>