<svg id="Capa_1" data-name="Capa 1" xmlns="http://www.w3.org/2000/svg" xmlns:xlink="http://www.w3.org/1999/xlink" viewBox="0 0 40 40"><defs><style>.cls-1{fill:url(#linear-gradient);}</style><linearGradient id="linear-gradient" x1="2.46" y1="20" x2="37.54" y2="20" gradientUnits="userSpaceOnUse"><stop offset="0" stop-color="#e68e24"/><stop offset="1" stop-color="#ca4727"/></linearGradient></defs><title>migraciones</title><path class="cls-1" d="M28.92,14.07a8.68,8.68,0,0,0-3,.52A9,9,0,0,0,8.47,17.7a6.83,6.83,0,0,0,.82,13.61H28.92V28.39H9.29a3.91,3.91,0,1,1,0-7.82,4.26,4.26,0,0,1,.57.06l1.65-1.72a6.11,6.11,0,1,1,12-2l2.25,1a5.7,5.7,0,1,1,3.12,10.46v2.92a8.62,8.62,0,0,0,0-17.24Z"/></svg>