<svg id="Capa_1" data-name="Capa 1" xmlns="http://www.w3.org/2000/svg" viewBox="0 0 173.39 191.05"><defs><style>.cls-1,.cls-5,.cls-7{fill:#fff;}.cls-1,.cls-2,.cls-3,.cls-4,.cls-5,.cls-6{stroke:#e68e24;stroke-linecap:round;stroke-linejoin:round;}.cls-1,.cls-2,.cls-3,.cls-6{stroke-width:2.5px;}.cls-2{fill:#f4cc9c;}.cls-3{fill:#edb066;}.cls-4,.cls-6{fill:none;}.cls-4,.cls-5{stroke-width:1.5px;}</style></defs><title>nosotros</title><path class="cls-1" d="M59.54,5.6h61.69a39.05,39.05,0,0,1,39.05,39.05v64.28a0,0,0,0,1,0,0H20.49a0,0,0,0,1,0,0V44.65A39.05,39.05,0,0,1,59.54,5.6Z"/><path class="cls-2" d="M133.55,51.16h4.64a0,0,0,0,1,0,0v4.48a4.64,4.64,0,0,1-4.64,4.64h0a0,0,0,0,1,0,0V51.16A0,0,0,0,1,133.55,51.16Z"/><path class="cls-2" d="M140.59,108.84V94.69c0-9.07-8.65-16.5-19.22-16.5h0c-10.58,0-19.23,7.43-19.23,16.5v14.15Z"/><path class="cls-1" d="M132.09,90.7l-8.21,2.65a6.33,6.33,0,0,1-3.85,0l-8.22-2.65a4,4,0,0,1-2.74-3.77V56.05a9.45,9.45,0,0,1,9.44-9.45h6.88a9.44,9.44,0,0,1,9.44,9.45V86.93A4,4,0,0,1,132.09,90.7Z"/><path class="cls-3" d="M132.09,90.7l-8.21,2.65a6.33,6.33,0,0,1-3.85,0l-8.22-2.65a4,4,0,0,1-2.74-3.77V73h0a3.37,3.37,0,0,0,2.83,0l5.69-2.57a3.22,3.22,0,0,1,2.72.91l1.55,1.55a.14.14,0,0,0,.19,0l1.62-1.58a3.22,3.22,0,0,1,2.69-.89l5.39,2.51a3.76,3.76,0,0,0,3.08,0h0v14A4,4,0,0,1,132.09,90.7Z"/><line class="cls-4" x1="130.86" y1="58.46" x2="126.01" y2="58.46"/><line class="cls-4" x1="118.03" y1="58.46" x2="113.18" y2="58.46"/><polyline class="cls-4" points="123.21 57.16 123.21 66.74 119.26 66.74"/><path class="cls-5" d="M118.64,75.86h6.76A3.38,3.38,0,0,1,122,79.24C119.44,79.24,118.64,75.86,118.64,75.86Z"/><path class="cls-2" d="M109.07,59.85h0a10.47,10.47,0,0,1,4.13-8.33L117,48.61l15.64,4.48a8.18,8.18,0,0,0,9-3c1.9-2.82,2.08-7.29-4.8-13.88,0,0-.09,0-.08,0,0,1,1,7.45-3.62,6.58A148.41,148.41,0,0,0,116.11,41a4.81,4.81,0,0,0-4.89,4.83v.28H108.5a2.58,2.58,0,0,0-2.59,2.58v8.51a2.81,2.81,0,0,0,2.8,2.66Z"/><line class="cls-2" x1="118.64" y1="49.07" x2="114.98" y2="46.6"/><path class="cls-6" d="M134.83,60.28H136A2.74,2.74,0,0,1,138.77,63v0A2.74,2.74,0,0,1,136,65.75h-1.2a0,0,0,0,1,0,0V60.28A0,0,0,0,1,134.83,60.28Z"/><path class="cls-6" d="M105.14,60.28h1.2A2.74,2.74,0,0,1,109.07,63v0a2.74,2.74,0,0,1-2.74,2.74h-1.2a0,0,0,0,1,0,0V60.28A0,0,0,0,1,105.14,60.28Z" transform="translate(214.21 126.03) rotate(-180)"/><line class="cls-2" x1="109.95" y1="108.84" x2="109.95" y2="98.55"/><line class="cls-2" x1="133.55" y1="108.84" x2="133.55" y2="98.55"/><polyline class="cls-1" points="20.49 108.93 5.2 139.4 168.19 139.4 160.28 108.93"/><path class="cls-1" d="M5.2,139.4h163a0,0,0,0,1,0,0v10.24a20.1,20.1,0,0,1-20.1,20.1H25.3a20.1,20.1,0,0,1-20.1-20.1V139.4A0,0,0,0,1,5.2,139.4Z"/><path class="cls-1" d="M51.62,185.45H32.92A10.32,10.32,0,0,1,22.6,175.13v-5.57l39.34.19v5.38A10.32,10.32,0,0,1,51.62,185.45Z"/><path class="cls-1" d="M142.23,185.45H123.52a10.32,10.32,0,0,1-10.31-10.32v-5.57l39.34.19v5.38A10.32,10.32,0,0,1,142.23,185.45Z"/><circle class="cls-6" cx="30.68" cy="154.32" r="8.24"/><path class="cls-4" d="M30.68,157.67a3.36,3.36,0,1,1,0-6.71"/><circle class="cls-6" cx="142.71" cy="154.32" r="8.24"/><path class="cls-4" d="M142.71,157.67a3.36,3.36,0,0,1,0-6.71"/><path class="cls-2" d="M63.83,102.91c8.59,0,16.62-11.71,17.44-14.35a9.24,9.24,0,0,1,1.42,5.12c10.89-6,9.35-25.2,9-27.21a16,16,0,0,1,4.25,1.9c2-22-11.23-26.15-14.67-27.57,1.13-1.13,4.15-2,6.63-1.54-7.69-9.35-24.07-3.08-24.07-3.08s-16.37-6.27-24.06,3.08c2.48-.47,5.5.41,6.62,1.54C43,42.22,29.71,46.36,31.72,68.37A16.11,16.11,0,0,1,36,66.47c-.35,2-1.89,21.18,9,27.21a9.24,9.24,0,0,1,1.42-5.12C47.22,91.2,55.25,102.91,63.83,102.91Z"/><path class="cls-7" d="M82.69,65.64c0-23.19-18.85-16-18.85-16S45,42.45,45,65.64l6.85,6.08h0A15.81,15.81,0,0,0,50.18,79c0,3.28,2.69,5.91,6.83,5.23v1.91a2.41,2.41,0,0,0,3.13,2.3,12.23,12.23,0,0,1,7.38,0,2.42,2.42,0,0,0,3.14-2.3V84.24c4.14.68,6.83-1.95,6.83-5.23a15.78,15.78,0,0,0-1.64-7.29ZM63.84,77.12h0l4.45-4.46h0Z"/><path class="cls-4" d="M52.54,65.41V59.26l5.8,6.15S50.18,68.6,50.18,79c0,4.85,5.89,8.29,13.65,1.66V77.12l-4.46-4.46h4.46"/><path class="cls-4" d="M57,84.35v1.81a2.41,2.41,0,0,0,3.13,2.29,13.36,13.36,0,0,1,3.69-.56"/><path class="cls-4" d="M75.83,71.74l6.86-6.1c0-23.19-18.86-16-18.86-16S45,42.45,45,65.64l6.86,6.1"/><path class="cls-4" d="M75.12,65.41V59.26l-5.8,6.15S77.49,68.6,77.49,79c0,4.85-5.9,8.29-13.66,1.66V77.12l4.46-4.46H63.83"/><path class="cls-4" d="M70.66,84.35v1.81a2.41,2.41,0,0,1-3.13,2.29,13.38,13.38,0,0,0-3.7-.56"/><line class="cls-4" x1="96.15" y1="32.46" x2="110.64" y2="15.88"/><line class="cls-4" x1="102.2" y1="33.15" x2="111.69" y2="22.3"/><polygon class="cls-5" points="20.49 108.93 36.22 96.89 142.71 97.23 160.28 108.93 20.49 108.93"/><path class="cls-5" d="M109.61,97.17a12.88,12.88,0,0,1,25.76,0Z"/><path class="cls-5" d="M113.88,97.17a8.61,8.61,0,0,1,17.22,0Z"/></svg>