<svg id="Capa_1" data-name="Capa 1" xmlns="http://www.w3.org/2000/svg" xmlns:xlink="http://www.w3.org/1999/xlink" viewBox="0 0 90 90"><defs><style>.cls-1{fill:#ccc;}.cls-2{fill:url(#Degradado_sin_nombre_17);}.cls-3{fill:url(#Degradado_sin_nombre_17-2);}</style><linearGradient id="Degradado_sin_nombre_17" x1="35.07" y1="39.26" x2="47.88" y2="38.19" gradientUnits="userSpaceOnUse"><stop offset="0" stop-color="#e68e24"/><stop offset="1" stop-color="#ca4727"/></linearGradient><linearGradient id="Degradado_sin_nombre_17-2" x1="36.04" y1="50.92" x2="48.85" y2="49.85" xlink:href="#Degradado_sin_nombre_17"/></defs><title>outsourcing</title><rect class="cls-1" x="12.04" y="74.69" width="2.67" height="7.18" transform="translate(-51.43 32.38) rotate(-45)"/><rect class="cls-1" x="9.79" y="76.94" width="7.18" height="2.67" transform="translate(-51.43 32.38) rotate(-45)"/><rect class="cls-1" x="77.52" y="53.08" width="2.67" height="7.18"/><rect class="cls-1" x="75.26" y="55.33" width="7.18" height="2.67"/><rect class="cls-1" x="9.61" y="13.04" width="2.67" height="6.24" transform="translate(-7.81 21.58) rotate(-72.03)"/><rect class="cls-1" x="14.02" y="11.3" width="2.67" height="2.96" transform="translate(-4.62 13.07) rotate(-40.6)"/><rect class="cls-1" x="72.35" y="17.18" width="6.24" height="2.67" transform="translate(-2.03 24.19) rotate(-17.97)"/><rect class="cls-1" x="69.58" y="13.79" width="2.96" height="2.67" transform="translate(13.33 59.24) rotate(-49.4)"/><path class="cls-1" d="M62.85,28a6,6,0,0,1-5.92-5.47,5.94,5.94,0,0,1,5.44-6.41,5.95,5.95,0,0,1,1,11.86Zm0-9.23h-.27a3.29,3.29,0,0,0-3,3.54,3.27,3.27,0,0,0,3.53,3,3.28,3.28,0,0,0-.26-6.55Z"/><rect class="cls-1" x="54.23" y="26.28" width="7.01" height="2.67" transform="translate(-1.68 51.41) rotate(-47.39)"/><path class="cls-1" d="M63.5,72.65a6,6,0,0,1-5.92-5.47A5.95,5.95,0,1,1,64,72.63h0Zm0-9.23h-.27a3.29,3.29,0,0,0-3,3.54,3.29,3.29,0,0,0,3.53,3h0A3.26,3.26,0,0,0,66,68.82a3.22,3.22,0,0,0,.76-2.38A3.27,3.27,0,0,0,63.51,63.42Z"/><rect class="cls-1" x="56.61" y="58.07" width="2.67" height="7.01" transform="translate(-26.61 62.53) rotate(-47.39)"/><path class="cls-1" d="M23.4,28l-.49,0a6,6,0,1,1,4.33-1.4A5.9,5.9,0,0,1,23.4,28Zm0-9.23a3.29,3.29,0,0,0-3.27,3,3.29,3.29,0,0,0,.77,2.39,3.28,3.28,0,1,0,2.77-5.39Z"/><rect class="cls-1" x="27.18" y="24.11" width="2.67" height="7.01" transform="translate(-11.17 26.59) rotate(-42.61)"/><path class="cls-1" d="M22.74,72.65l-.48,0a5.95,5.95,0,0,1,1-11.86,5.95,5.95,0,0,1-.48,11.88Zm0-9.23a3.29,3.29,0,0,0-3.26,3,3.29,3.29,0,0,0,3,3.53h0A3.28,3.28,0,1,0,23,63.43Z"/><rect class="cls-1" x="24.8" y="60.25" width="7.01" height="2.67" transform="translate(-34.22 35.42) rotate(-42.61)"/><path class="cls-2" d="M43.19,44.07a5.49,5.49,0,1,1,5.48-5.48A5.49,5.49,0,0,1,43.19,44.07Zm0-8.3A2.82,2.82,0,1,0,46,38.59,2.81,2.81,0,0,0,43.19,35.77Z"/><path class="cls-3" d="M49.92,55.21H47.25V51.64a4.06,4.06,0,1,0-8.12,0v3.57H36.46V51.64a6.73,6.73,0,1,1,13.46,0Z"/><path class="cls-1" d="M43.19,65.52a20,20,0,1,1,20-20A20,20,0,0,1,43.19,65.52Zm0-37.37A17.35,17.35,0,1,0,60.54,45.5,17.37,17.37,0,0,0,43.19,28.15Z"/></svg>