<svg id="Capa_1" data-name="Capa 1" xmlns="http://www.w3.org/2000/svg" viewBox="0 0 2171.96 498.99"><defs><style>.cls-1{fill:#fbb03b;}.cls-2{fill:#e68e24;}.cls-3{fill:#ca4827;}.cls-4{fill:#fff;}.cls-5{font-size:37.86px;font-family:MyriadPro-Regular, Myriad Pro;}.cls-6{letter-spacing:-0.01em;}.cls-7{letter-spacing:0em;}.cls-8{letter-spacing:0.01em;}.cls-9{letter-spacing:-0.01em;}.cls-10{letter-spacing:0em;}.cls-11{letter-spacing:-0.01em;}.cls-12{letter-spacing:0em;}.cls-13{letter-spacing:-0.01em;}.cls-14{letter-spacing:-0.01em;}</style></defs><title>pasos-evaluate</title><polygon class="cls-1" points="2069.27 498.4 2069.27 445.99 1416.32 445.99 1497.64 245.8 1416.32 45.61 2072.27 45.61 2072.27 0.6 2171.64 245.8 2069.27 498.4"/><polygon class="cls-2" points="1361.27 498.4 1361.27 445.99 708.32 445.99 789.64 245.8 708.32 45.61 1364.27 45.61 1364.27 0.6 1463.64 245.8 1361.27 498.4"/><polygon class="cls-3" points="653.27 498.4 653.27 445.99 0.32 445.99 81.64 245.8 0.32 45.61 656.27 45.61 656.27 0.6 755.64 245.8 653.27 498.4"/><path class="cls-4" d="M251.35,349.07H233.73v11.12h20.82v8.62h-32v-46.5h32.09V331H233.73v9.8h17.62Z"/><path class="cls-4" d="M277.16,356.16l9.26-33.85h12.52l-15.65,46.5H271l-15.52-46.5h12.42Z"/><path class="cls-4" d="M326.34,360.12H311l-2.68,8.69h-12l17.05-46.5h10.54l17.18,46.5h-12Zm-12.68-8.65h10l-5-16.13Z"/><path class="cls-4" d="M355.69,360.19H375.2v8.62H344.48v-46.5h11.21Z"/><path class="cls-4" d="M415.63,322.31v30.44a17.5,17.5,0,0,1-2.2,9,14.31,14.31,0,0,1-6.32,5.76,22.32,22.32,0,0,1-9.75,2q-8.49,0-13.38-4.41T379,353V322.31h11.28v30.88c.12,5.09,2.49,7.64,7.08,7.64a6.85,6.85,0,0,0,5.27-1.92c1.2-1.28,1.79-3.35,1.79-6.23V322.31Z"/><path class="cls-4" d="M448.33,360.12H433l-2.68,8.69h-12l17.06-46.5h10.54l17.18,46.5h-12Zm-12.67-8.65h10l-5-16.13Z"/><path class="cls-4" d="M499.14,331H485.19v37.84H474V331h-13.7v-8.66h38.86Z"/><path class="cls-4" d="M532.71,349.07H515.08v11.12H535.9v8.62h-32v-46.5H536V331H515.08v9.8h17.63Z"/><path class="cls-4" d="M369.5,212.53q0,29.08-13.06,44.86t-36.83,15.78q-24,0-37.07-15.88t-13.11-44.76V186.3q0-29.07,13.06-44.85t36.93-15.78q23.85,0,37,15.87T369.5,186.4Zm-33.23-30.46q0-15.48-4-23.12t-12.81-7.65q-8.58,0-12.48,7.1t-4.19,21.5v36.67q0,16.08,4.05,23.52t12.81,7.44q8.47,0,12.52-7.25t4.14-22.72Z"/><path class="cls-4" d="M460.4,271.19H427.08V165.11l-32.74,9.56V149.43l63-21.79h3Z"/><path class="cls-4" d="M1016.15,353v15.78h-11.21v-46.5h18.56a21.65,21.65,0,0,1,9.44,2,14.8,14.8,0,0,1,6.35,5.59,15.23,15.23,0,0,1,2.25,8.22,13.44,13.44,0,0,1-4.87,10.87q-4.86,4.08-13.36,4.07Zm0-8.65h7.35a6.88,6.88,0,0,0,5-1.63,6,6,0,0,0,1.71-4.6,7.47,7.47,0,0,0-1.75-5.2,6.21,6.21,0,0,0-4.79-2h-7.48Z"/><path class="cls-4" d="M1058.72,360.19h19.52v8.62h-30.73v-46.5h11.21Z"/><path class="cls-4" d="M1110,360.12h-15.36l-2.68,8.69h-12l17-46.5h10.54l17.18,46.5h-12Zm-12.68-8.65h10l-5-16.13Z"/><path class="cls-4" d="M1167,368.81h-11.14l-16.48-28.93v28.93h-11.21v-46.5h11.21l16.45,28.94V322.31H1167Z"/><path class="cls-4" d="M1077.5,212.53q0,29.08-13.06,44.86t-36.83,15.78q-24,0-37.07-15.88t-13.11-44.76V186.3q0-29.07,13.06-44.85t36.93-15.78q23.85,0,37,15.87t13.11,44.86Zm-33.22-30.46q0-15.48-4-23.12t-12.81-7.65q-8.58,0-12.48,7.1t-4.19,21.5v36.67q0,16.08,4,23.52t12.81,7.44q8.48,0,12.52-7.25t4.15-22.72Z"/><path class="cls-4" d="M1194.93,271.19H1094.75V249.5L1140.9,201q17.05-19.42,17-30.86,0-9.27-4-14.1t-11.73-4.83a14.64,14.64,0,0,0-12.33,6.45q-4.72,6.47-4.73,16.12H1091.8a47.19,47.19,0,0,1,6.6-24.4,46.34,46.34,0,0,1,18.34-17.5,54.54,54.54,0,0,1,26.23-6.31q23.27,0,35.83,10.75t12.58,30.86a44.85,44.85,0,0,1-3.16,16.51,72.07,72.07,0,0,1-9.81,16.86q-6.66,8.82-21.44,23.62l-18.54,21.39h56.5Z"/><path class="cls-4" d="M1686.76,349.07h-17.63v11.12H1690v8.62h-32v-46.5H1690V331h-20.88v9.8h17.63Z"/><path class="cls-4" d="M1711.86,337.77l7.6-15.46h12.8l-13,23.06,13.35,23.44h-12.94l-7.82-15.74L1704,368.81h-12.9l13.32-23.44-13-23.06h12.78Z"/><path class="cls-4" d="M1765.09,349.07h-17.62v11.12h20.82v8.62h-32v-46.5h32.09V331h-20.88v9.8h17.62Z"/><path class="cls-4" d="M1810.47,353.07a17,17,0,0,1-2.61,8.57,15.88,15.88,0,0,1-6.73,5.77,22.9,22.9,0,0,1-9.88,2q-9.16,0-14.44-6t-5.26-16.86v-2.3a28.05,28.05,0,0,1,2.38-12,17.94,17.94,0,0,1,6.84-7.92,19.08,19.08,0,0,1,10.35-2.8q8.46,0,13.61,4.46t5.84,12.28h-11.18c-.08-2.83-.8-4.87-2.14-6.1s-3.38-1.86-6.13-1.86a6.71,6.71,0,0,0-6.13,3.13q-2,3.13-2,10v3.29q0,7.44,1.86,10.63t6.44,3.2a8.62,8.62,0,0,0,5.91-1.82c1.36-1.22,2.08-3.14,2.17-5.78Z"/><path class="cls-4" d="M1852.25,322.31v30.44a17.51,17.51,0,0,1-2.21,9,14.26,14.26,0,0,1-6.32,5.76,22.28,22.28,0,0,1-9.74,2q-8.49,0-13.38-4.41t-5-12.07V322.31h11.27v30.88q.19,7.63,7.09,7.64a6.85,6.85,0,0,0,5.27-1.92c1.19-1.28,1.79-3.35,1.79-6.23V322.31Z"/><path class="cls-4" d="M1895.74,331h-14v37.84h-11.21V331h-13.7v-8.66h38.86Z"/><path class="cls-4" d="M1929.31,349.07h-17.63v11.12h20.82v8.62h-32v-46.5h32.09V331h-20.88v9.8h17.63Z"/><path class="cls-4" d="M1785.5,212.53q0,29.08-13.06,44.86t-36.83,15.78q-24,0-37.07-15.88t-13.11-44.76V186.3q0-29.07,13.06-44.85t36.93-15.78q23.85,0,37,15.87t13.11,44.86Zm-33.23-30.46q0-15.48-4-23.12t-12.81-7.65q-8.58,0-12.48,7.1t-4.19,21.5v36.67q0,16.08,4,23.52t12.81,7.44q8.48,0,12.52-7.25t4.14-22.72Z"/><path class="cls-4" d="M1833.12,185.52h15.68q18.63,0,18.63-18.24a15.76,15.76,0,0,0-4.44-11.59q-4.42-4.49-12.52-4.48a18,18,0,0,0-11.48,3.84,11.71,11.71,0,0,0-4.88,9.56h-33.23a34,34,0,0,1,6.31-20.21,41.74,41.74,0,0,1,17.5-13.85,59.82,59.82,0,0,1,24.6-5q24,0,37.66,11t13.71,30.07a30.32,30.32,0,0,1-5.67,17.5q-5.67,8.24-16.52,13.36,11.44,4.14,18,12.57t6.5,20.85q0,19.23-14.79,30.76t-38.84,11.54a63.71,63.71,0,0,1-26.18-5.38q-12.08-5.37-18.29-14.89a38.69,38.69,0,0,1-6.21-21.64H1832a15,15,0,0,0,5.32,11.44,18.8,18.8,0,0,0,13.11,4.83q8.77,0,14-4.88a16.29,16.29,0,0,0,5.23-12.47q0-10.85-5.42-15.38t-15-4.54h-16.17Z"/><text class="cls-5" transform="translate(434.3 -79.65)">Las imágenes si tienen <tspan class="cls-6" x="362.2" y="0">t</tspan><tspan class="cls-7" x="374.5" y="0">e</tspan><tspan class="cls-8" x="393.36" y="0">x</tspan><tspan class="cls-9" x="411.38" y="0">t</tspan><tspan class="cls-10" x="423.68" y="0">o que sea en inglés (</tspan><tspan class="cls-11" x="742.61" y="0">E</tspan><tspan class="cls-12" x="760.97" y="0">v</tspan><tspan x="779.03" y="0">alu</tspan><tspan class="cls-12" x="827.07" y="0">a</tspan><tspan class="cls-6" x="845.17" y="0">t</tspan><tspan x="857.47" y="0">e - </tspan><tspan class="cls-13" x="904.11" y="0">P</tspan><tspan x="924.07" y="0">lan - E</tspan><tspan class="cls-14" x="1018.56" y="0">x</tspan><tspan class="cls-10" x="1035.52" y="0">ecu</tspan><tspan class="cls-9" x="1092.31" y="0">t</tspan><tspan x="1104.62" y="0">e)</tspan></text></svg>