<svg id="Capa_1" data-name="Capa 1" xmlns="http://www.w3.org/2000/svg" viewBox="0 0 84.36 76.36"><defs><style>.cls-1{fill:none;}.cls-2{fill:#e68e24;}</style></defs><title>perfiles-tecnicos-altos</title><path class="cls-1" d="M45.84,73.86V72.48l-2.51,1.26C44.16,73.81,45,73.85,45.84,73.86Z"/><path class="cls-1" d="M36.19,25.12a4.38,4.38,0,1,0,4.14,5.75,6.82,6.82,0,0,1,.24-1.35v0A4.38,4.38,0,0,0,36.19,25.12Z"/><path class="cls-1" d="M46.18,2.5A35.75,35.75,0,0,0,11.62,29.26a9.23,9.23,0,0,1,0,17.84A35.83,35.83,0,0,0,29.51,69.72V59.56A4.59,4.59,0,0,1,25,55V46.76a9.68,9.68,0,0,1,9.66-9.67h3.14a9.58,9.58,0,0,1,6,2.09A9.75,9.75,0,0,1,45.61,39h3.14a9.57,9.57,0,0,1,6,2.08,9.64,9.64,0,0,1,1.87-.19h3.15a9.68,9.68,0,0,1,9.66,9.67v8.22A4.59,4.59,0,0,1,65,63.34v5.15a35.67,35.67,0,0,0-18.8-66Zm12,37.67A6.87,6.87,0,0,1,52,36.3a6.85,6.85,0,0,1-11-1.9,6.88,6.88,0,1,1,1.36-7.91,6.85,6.85,0,0,1,11,1.89,6.88,6.88,0,1,1,4.81,11.79Z"/><path class="cls-2" d="M46.18,0a38.25,38.25,0,0,0-37,28.94,9.24,9.24,0,0,0,0,18.48,38.32,38.32,0,0,0,21,25.42l.18.08a37.43,37.43,0,0,0,5.34,2h0a37.9,37.9,0,0,0,10.45,1.46l.81,0,.1,0,.13,0a38.13,38.13,0,0,0,11.36-2l.1,0a36.84,36.84,0,0,0,5.49-2.41l.12,0A38.18,38.18,0,0,0,46.18,0ZM2.5,38.18a6.75,6.75,0,1,1,6.74,6.75A6.75,6.75,0,0,1,2.5,38.18Zm39.25,8.9a1.25,1.25,0,0,0-1.25,1.25v10h0v15.1q-1.55-.25-3.06-.63V58.31a1.25,1.25,0,0,0-2.5,0V72c-1-.33-2-.7-2.93-1.11V58.31h0v-10a1.25,1.25,0,1,0-2.5,0v8.73A2.09,2.09,0,0,1,27.46,55V46.76a7.17,7.17,0,0,1,7.16-7.17h3.14a7.18,7.18,0,0,1,7.17,7.17V55A2.09,2.09,0,0,1,43,57.05V48.33A1.25,1.25,0,0,0,41.75,47.08Zm9.74,22.57v3.82c-1,.15-2.09.26-3.15.32V60.21a1.25,1.25,0,0,0-2.5,0V73.86c-.85,0-1.68,0-2.51-.12l-.33,0V60.21h0v-.66A4.59,4.59,0,0,0,47.43,55V46.76a9.61,9.61,0,0,0-1.58-5.27h2.9a7.17,7.17,0,0,1,7.17,7.16v8.22A2.08,2.08,0,0,1,54,58.94V50.22a1.25,1.25,0,0,0-2.5,0V69M63.73,50.87a1.25,1.25,0,0,0-1.25,1.25v10h0v7.81c-1,.51-2,1-3.07,1.4V62.1a1.25,1.25,0,1,0-2.5,0V72.21c-.95.3-1.93.56-2.92.78V61.44a4.59,4.59,0,0,0,4.43-4.57V48.65a9.64,9.64,0,0,0-1.58-5.27h2.9a7.17,7.17,0,0,1,7.16,7.17v8.22A2.09,2.09,0,0,1,65,60.84V52.12A1.25,1.25,0,0,0,63.73,50.87ZM65,68.49V63.34a4.59,4.59,0,0,0,4.42-4.57V50.55a9.68,9.68,0,0,0-9.66-9.67H56.59a9.64,9.64,0,0,0-1.87.19,9.57,9.57,0,0,0-6-2.08H45.61a9.75,9.75,0,0,0-1.88.19,9.58,9.58,0,0,0-6-2.09H34.62A9.68,9.68,0,0,0,25,46.76V55a4.59,4.59,0,0,0,4.55,4.58V69.72A35.83,35.83,0,0,1,11.62,47.1a9.23,9.23,0,0,0,0-17.84A35.68,35.68,0,1,1,65,68.49Z"/><path class="cls-2" d="M58.16,26.41a6.86,6.86,0,0,0-4.81,2,6.85,6.85,0,0,0-11-1.89A6.88,6.88,0,1,0,41,34.4a6.85,6.85,0,0,0,11,1.9,6.87,6.87,0,1,0,6.17-9.89ZM40.5,29.52a4.45,4.45,0,0,1-1.44,3.27,4.35,4.35,0,0,1-2.87,1.09,4.38,4.38,0,1,1,3.23-7.34A4.3,4.3,0,0,1,40.5,29.52Zm6.68,6.25a4.62,4.62,0,0,1-3.39-1.6,4.44,4.44,0,0,1-.44-4.85,4.18,4.18,0,0,1,1-1.21,4.37,4.37,0,1,1,2.87,7.66Zm11,1.9A4.44,4.44,0,0,1,54.77,36a4.52,4.52,0,0,1-.39-4.9,4.36,4.36,0,0,1,3.78-2.22,4.38,4.38,0,1,1,0,8.76Z"/><path class="cls-2" d="M15,38.18a1.24,1.24,0,0,0-1.25-1.25H10.49V33.65a1.25,1.25,0,0,0-2.5,0v3.28H4.71a1.25,1.25,0,0,0,0,2.5H8v3.28a1.25,1.25,0,0,0,2.5,0V39.43h3.28A1.24,1.24,0,0,0,15,38.18Z"/></svg>