<svg id="Capa_1" data-name="Capa 1" xmlns="http://www.w3.org/2000/svg" viewBox="0 0 370.42 110"><defs><style>.cls-1{fill:#d9d9d9;}</style></defs><title>privalia</title><path class="cls-1" d="M277.8,47.38c-.24-3.73-2.28-5.52-6.36-5.55-5.83,0-11.65,0-17.48,0-1.76,0-3.67.24-3.59-2.48.08-2.53,1.91-2.21,3.53-2.22,5.52,0,11,0,16.56,0,7.94.06,12.33,4.49,12.35,12.38,0,3.68,0,7.37,0,11,0,1.94-.73,2.79-2.7,2.78-8.08,0-16.16.08-24.23,0-4.88-.08-7.57-3.19-7.48-8.18.08-4.82,3-7.74,7.94-7.76C263.51,47.36,270.65,47.38,277.8,47.38Zm.38,4.42c-7.64,0-15.17-.12-22.69.15-1,0-2.31,2-2.61,3.31a2.56,2.56,0,0,0,2.59,3.34c7.52.06,15,0,22.71,0Z"/><path class="cls-1" d="M191.63,47.38c-.74-4-2.53-5.61-6.67-5.69-5.82-.11-11.65,0-17.47.07-1.76,0-3.34.23-3.38-2.26s1.62-2.37,3.33-2.37c5.72,0,11.44,0,17.16,0,7.29.06,11.61,4.26,11.81,11.57.11,3.88,0,7.77.06,11.65,0,1.89-.53,2.82-2.59,2.8-8.27-.07-16.55,0-24.83-.09-4.42-.06-7-3.18-7-7.93,0-4.55,2.93-7.72,7.29-7.76C176.68,47.34,184,47.38,191.63,47.38Zm.14,4.4c-7.29,0-14.41.06-21.52,0-2.36,0-3.83.82-3.88,3.22s1.18,3.72,3.79,3.69c6.33-.08,12.66,0,19,0,.87,0,1.74-.15,2.62-.23Z"/><path class="cls-1" d="M42.32,62.54c0,3.46,0,6.41,0,9.36,0,1.65-.27,2.77-2.3,2.72-1.86,0-2.13-1.05-2.12-2.59,0-8.18-.08-16.35,0-24.53a10.8,10.8,0,0,1,10.5-10.38c4.49-.2,9-.19,13.48,0,5.79.3,9.26,3.52,10.06,9.25a24.72,24.72,0,0,1,0,6.71c-.82,6-4.79,9.32-10.94,9.4S48.84,62.54,42.32,62.54Zm0-4.51c5.69,0,11-.21,16.28,0,7.84.38,9.52-3.66,9-10-.33-4-2.68-6.26-6.8-6.37-3.88-.11-7.76-.1-11.64,0-4.07.12-6.49,2.34-6.78,6.4C42.16,51.22,42.34,54.38,42.34,58Z"/><path class="cls-1" d="M123.8,37.84c2.72-1.08,4.48-.43,5.87,2.11,2.93,5.38,6.06,10.65,9.12,16,.55,1,1.16,1.87,2.06,3.3.86-1.26,1.51-2.09,2-3q4.73-8.05,9.39-16.16c1.68-2.88,2.1-3,6-2.24a8.42,8.42,0,0,1-.58,1.88q-6.12,10.79-12.34,21.53c-1.67,2.88-6.94,3.24-8.57.48-4.35-7.39-8.52-14.89-12.73-22.36A4.72,4.72,0,0,1,123.8,37.84Z"/><path class="cls-1" d="M77.93,62.56c0-5.22-.38-10.54.1-15.78.52-5.71,5.09-9.37,11.29-9.59,5.3-.18,10.62,0,15.93,0,1.52,0,2.55.39,2.59,2.21s-1,2.54-2.66,2.51c-4.69-.07-9.39-.18-14.08-.18-6.08,0-8.83,2.75-8.86,8.77,0,3.16,0,6.33,0,9.49C82.19,63.36,81.75,63.64,77.93,62.56Z"/><path class="cls-1" d="M221.33,62.93c-3.16,0-6.35.25-9.49-.06a10.15,10.15,0,0,1-9.38-9.37,129.64,129.64,0,0,1-.21-14.08c0-.77,1.37-1.51,2.1-2.27.81.78,2.25,1.53,2.31,2.36.26,3.66.09,7.35.12,11,0,5.38,2.7,8,8.15,8.08,4.8,0,9.6.06,14.41,0,1.78,0,3,.31,2.94,2.46s-1.47,2.09-3,2.07c-2.66,0-5.31,0-8,0Z"/><path class="cls-1" d="M242.7,50.39c0,3.36,0,6.72,0,10.08,0,1.66-.4,2.71-2.38,2.69s-2.26-1.15-2.25-2.78q.06-10.23,0-20.47c0-1.71.46-2.73,2.36-2.74s2.29,1.23,2.28,2.83C242.68,43.46,242.7,46.93,242.7,50.39Z"/><path class="cls-1" d="M113.44,50.26c0-3.36,0-6.72,0-10.08,0-1.69.1-3.06,2.33-3,2,0,2.28,1.26,2.28,2.84q0,10.23,0,20.46c0,1.65-.48,2.71-2.42,2.72s-2.22-1.24-2.2-2.82C113.47,57,113.44,53.62,113.44,50.26Z"/><path class="cls-1" d="M311.46,35.37c5.05,1.4,6.47,6.32,5.13,12.83C311.7,44.81,308.66,40.71,311.46,35.37Z"/><path class="cls-1" d="M318.23,52.17c6.27,4.7,7.63,8.07,5.42,13C318.71,63.58,317.47,60.7,318.23,52.17Z"/><path class="cls-1" d="M332.53,56.54c-5.27,2.12-8.43.78-13-5.31C326.51,49.83,330,51.22,332.53,56.54Z"/><path class="cls-1" d="M323.77,35.42c2.81,5.8-.45,9.15-5.24,12.87C316.65,42.2,318.57,37.49,323.77,35.42Z"/><path class="cls-1" d="M315.43,49.51c-7.15,1.2-10.75-.31-12.76-5.35C308,41,312.5,45,315.43,49.51Z"/><path class="cls-1" d="M332.46,44.17c-1.86,5.93-6.59,6.23-12.72,5.49C322.37,44.12,327.26,42,332.46,44.17Z"/><path class="cls-1" d="M311.16,65.25c-2-5.38-.6-8.49,5.38-12.75C318.2,58.68,316.29,63.33,311.16,65.25Z"/><path class="cls-1" d="M315.59,51.17c-5.62,6.47-8,7.41-12.91,5.31C303.45,52,308,49.8,315.59,51.17Z"/></svg>