<svg id="Capa_1" data-name="Capa 1" xmlns="http://www.w3.org/2000/svg" xmlns:xlink="http://www.w3.org/1999/xlink" viewBox="0 0 90 90"><defs><style>.cls-1{fill:#ccc;}.cls-2{fill:url(#Degradado_sin_nombre_17);}.cls-3{fill:url(#Degradado_sin_nombre_17-2);}</style><linearGradient id="Degradado_sin_nombre_17" x1="30.54" y1="60.74" x2="59.46" y2="60.74" gradientUnits="userSpaceOnUse"><stop offset="0" stop-color="#e68e24"/><stop offset="1" stop-color="#ca4727"/></linearGradient><linearGradient id="Degradado_sin_nombre_17-2" x1="39.73" y1="60.69" x2="50.8" y2="60.69" xlink:href="#Degradado_sin_nombre_17"/></defs><title>profesionales-top</title><rect class="cls-1" x="19" y="66.39" width="2.67" height="7.18" transform="translate(-43.52 34.87) rotate(-45)"/><rect class="cls-1" x="16.75" y="68.65" width="7.18" height="2.67" transform="translate(-43.53 34.88) rotate(-45)"/><rect class="cls-1" x="69.73" y="59.27" width="2.67" height="7.18"/><rect class="cls-1" x="67.47" y="61.52" width="7.18" height="2.67"/><rect class="cls-1" x="22.95" y="19.26" width="2.67" height="6.24" transform="translate(-4.49 38.58) rotate(-72.03)"/><rect class="cls-1" x="27.36" y="17.51" width="2.67" height="2.96" transform="translate(-5.45 23.25) rotate(-40.6)"/><rect class="cls-1" x="64.56" y="25.72" width="6.24" height="2.67" transform="translate(-5.05 22.21) rotate(-17.97)"/><rect class="cls-1" x="61.79" y="22.34" width="2.96" height="2.67" transform="translate(4.12 56.31) rotate(-49.4)"/><path class="cls-1" d="M45,31.56a9.31,9.31,0,1,1,9.31-9.31A9.32,9.32,0,0,1,45,31.56Zm0-16.12a6.81,6.81,0,1,0,6.81,6.81A6.82,6.82,0,0,0,45,15.44Z"/><path class="cls-1" d="M35.5,51.1,33,50.91l.25-3.38a11.74,11.74,0,0,1,23.48.1v3.25h-2.5V47.63a9.24,9.24,0,1,0-18.48,0Z"/><path class="cls-2" d="M45,77.2l-.56-.27c-16.08-8-13.8-24.77-13.77-24.93l.09-.65L45,44.27l14.24,7.08.09.65c0,.16,2.31,16.93-13.77,24.93ZM33.07,53A21.9,21.9,0,0,0,45,74.4,21.92,21.92,0,0,0,56.93,53L45,47.06Z"/><polygon class="cls-3" points="43.56 65.42 39.73 61.26 41.57 59.56 43.57 61.74 48.98 55.97 50.8 57.68 43.56 65.42"/></svg>