<svg id="Capa_1" data-name="Capa 1" xmlns="http://www.w3.org/2000/svg" viewBox="0 0 370.42 110"><defs><style>.cls-1{fill:#d9d9d9;}</style></defs><title>schibsted-brutale copia</title><path class="cls-1" d="M46.62,9.82c1.1,0,2.2.12,3.3.13,28.16,0,56.32,0,84.48-.06,2.49,0,3.36.51,3.34,3.18q-.18,25.14,0,50.28c0,2.48-.59,3.64-3.26,3.37-1.94-.2-3.93.08-5.86-.12-.64-.07-1.67-.95-1.69-1.5-.46-9.41-4.19-17.77-8.14-26.08-1.43-3-2.93-5.94-4.16-9a13.1,13.1,0,0,1-.94-4.94c0-1.92,1-3.48,3.24-3.56s3.3,1.06,3.65,3.13c.14.82.34,1.64.52,2.52h5.39c0-3.09.06-6.11-.06-9.12,0-.41-.86-1-1.4-1.15-7.45-1.7-14.87-2-21.94,1.38-8,3.82-11.7,13.18-8.75,22.92,1.37,4.52,3.61,8.78,5.41,13.17,1.59,3.89,3.1,7.8,4.88,12.27a54.51,54.51,0,0,1-5.6-.06,2.29,2.29,0,0,1-1.38-1.42c-2.62-8.82-10.76-12.8-20-11.33-9.56,1.53-15.29,8.34-15.35,17.74-.06,10.29,5,18,14.84,21,14.64,4.51,28.31,2.12,40.15-7.82,2.89-2.43,4.88-6,7-9.28.86-1.33,1.58-2,3.14-1.89,2.8.11,5.62-.07,8.42.12a2.54,2.54,0,0,1,1.76,1.71c0,8.25,0,16.49-.1,24.74H46.62Z"/><path class="cls-1" d="M85.05,73.67h19.21c-.89,5.53-3.75,9.25-8.41,11.4a21.1,21.1,0,0,1-17.07.38A12.22,12.22,0,0,1,71.29,71a6.54,6.54,0,0,1,6.26-5.36,6.71,6.71,0,0,1,6.77,5.08C84.57,71.57,84.76,72.48,85.05,73.67Z"/><path class="cls-1" d="M225.39,69.55V46.74c4.31.2,8.64,0,12.83.7s5.54,7.2,2,9.65c.88,2.21,2.16,4.21,2.41,6.34a5.31,5.31,0,0,1-4.93,6C233.64,69.8,229.57,69.55,225.39,69.55ZM229.57,60v6.08c2.07,0,4,.08,5.92,0a2.89,2.89,0,0,0,3-3.11c0-1.92-1.22-2.78-2.88-2.92C233.69,59.85,231.74,60,229.57,60Zm0-3.73c2.13,0,4.07.31,5.81-.13a3.67,3.67,0,0,0,2.3-2.67,3.63,3.63,0,0,0-2.31-2.63c-1.81-.43-3.8-.12-5.8-.12Z"/><path class="cls-1" d="M306,69.6V46.73c4.06.21,8.05.05,11.89.72s5.86,3.93,5.89,7.86c0,2,0,4.07,0,6.1-.05,4.38-2.81,7.74-7.15,8.13C313.21,69.85,309.73,69.6,306,69.6Zm4.41-18.84V66c1.6,0,3,.06,4.47,0,3.08-.16,4.57-1.73,4.64-4.85,0-1.86,0-3.72,0-5.59-.06-2.85-1.4-4.43-4.22-4.75A46.43,46.43,0,0,0,310.42,50.76Z"/><path class="cls-1" d="M262.65,51.21l-2.48,1.18a39.94,39.94,0,0,0-6-2.11,2.75,2.75,0,0,0-3.41,2.31c-.33,1.86,1.08,2.54,2.5,3,1.61.51,3.29.81,4.92,1.28,3.1.88,4.65,2.67,4.84,5.48a6.48,6.48,0,0,1-3.9,6.79c-5.28,2.56-11.85.51-14-4.63l3.57-1.45c2.58,3.09,5.06,4.15,7.76,3a4.13,4.13,0,0,0,2.27-2.61c.1-.74-1.12-2.06-2.05-2.46a49,49,0,0,0-5.84-1.69A5.53,5.53,0,0,1,246.46,54a6.24,6.24,0,0,1,3.44-6.3A9.24,9.24,0,0,1,262.65,51.21Z"/><path class="cls-1" d="M196.25,69.64h-4.12V47.09h4v9h9.12v-9h4.12v22.5h-3.94V60.22h-9.16Z"/><path class="cls-1" d="M148.69,64.44l3.55-1.39c1.77,2.48,4.11,4.14,7.26,3.08a4.59,4.59,0,0,0,2.73-2.74c.15-.68-1.41-2.13-2.48-2.61-1.84-.82-3.94-1-5.84-1.71a6.25,6.25,0,0,1-2.13-10.23c2.93-3.07,12.09-3.64,14.34,2.39l-2.41,1.15a40.55,40.55,0,0,0-6-2.1,2.74,2.74,0,0,0-3.39,2.34c-.3,1.87,1.13,2.52,2.52,3,1.61.52,3.29.83,4.93,1.27,2.58.7,4.39,2.21,4.78,5a6.51,6.51,0,0,1-3,6.81C159.52,71.33,150.32,70.59,148.69,64.44Z"/><path class="cls-1" d="M301.72,65.92v3.67H285.84V47.13h15.72v3.51H290.35v5.52h9.85V60h-9.86v6Z"/><path class="cls-1" d="M184,62h3.29c.69,3.06-.36,5.6-3.18,7-3.77,1.85-7.7,1.82-11.09-.69a7.93,7.93,0,0,1-2.85-4.8,46,46,0,0,1,0-10.16c.45-4.63,5.13-7.44,10.58-6.69,4.53.63,7.22,3.76,6.72,8H183.9a4.86,4.86,0,0,0-9.68.47q0,3.2,0,6.37c0,2.85,1.4,4.39,4.2,4.83,2.5.39,4.28-.76,5.2-3.36C183.73,62.64,183.87,62.34,184,62Z"/><path class="cls-1" d="M282.51,47.08v3.5h-6.23v19H272V50.72H265.4V47.08Z"/><path class="cls-1" d="M158.66,91.59c2.23-4.15,4.09-7.76,6.11-11.28.43-.74,1.43-1.15,2.39-1.88V99.09h-.87V83l-.91-.22-3.21,5.84c-.61,1.11-1.16,2.27-1.87,3.33a13.53,13.53,0,0,1-1.67,1.72,9.57,9.57,0,0,1-1.67-1.7c-1.76-3-3.43-6.13-5.13-9.19l-.81.18V99.08h-1.18c-.2-6.65-.06-13.3-.07-20.9,1.3,1,2.27,1.44,2.69,2.17C154.51,83.86,156.4,87.46,158.66,91.59Z"/><path class="cls-1" d="M215.4,47.07h4v22.5h-4Z"/><path class="cls-1" d="M189.15,78.7c3.48.19,6.54.2,9.55.56,2.49.3,4.42,1.87,4.6,4.41a48.91,48.91,0,0,1-.2,11.09,6,6,0,0,1-3.7,4c-2.89.73-6,.48-9.08.5-.39,0-1.11-.84-1.12-1.29C189.13,91.68,189.15,85.42,189.15,78.7Zm1.43,10.55h0v2.8c0,6.55.05,6.59,6.68,5.81l.5-.07a4.75,4.75,0,0,0,4.17-4.72c.07-2.55.06-5.11,0-7.66s-1.31-4.39-4-4.84a25.76,25.76,0,0,0-6.08-.18c-.48,0-1.22,1.09-1.26,1.72C190.5,84.48,190.58,86.87,190.58,89.25Z"/><path class="cls-1" d="M272.78,89.39c0-1.19,0-2.38,0-3.57.08-4.53,2.8-7.21,7.36-7.26,4.78-.06,7.65,2.54,7.8,7.14.07,2.2.08,4.42,0,6.62-.12,2.9-1.16,5.4-4,6.6-3,1.26-6.11,1.32-8.7-.73A8.53,8.53,0,0,1,272.89,94c-.39-1.42-.08-3-.08-4.57Zm13.39-.14c0-1.11,0-2.21,0-3.31,0-3.84-1.95-5.84-5.7-5.93s-6.1,2.12-6.24,5.84c-.07,2,0,4.07,0,6.11,0,4.07,2.15,6.28,6,6.31s5.95-2.14,6-6.23C286.18,91.11,286.17,90.18,286.17,89.25Z"/><path class="cls-1" d="M264.38,91l5.5,7.77-.41.58a8.28,8.28,0,0,1-1.82-1.26,27.44,27.44,0,0,1-3.13-4.34c-1.49-2.8-3.66-3.5-6.68-2.58-.15,2.62-.3,5.3-.45,8l-1,0V78.92c2.47,0,5.1-.17,7.69,0a5.67,5.67,0,0,1,5.43,5.18c.34,2.78-1,5-3.83,6.23Zm-6.57-1.44h4.38a9.74,9.74,0,0,0,1.53-.07c2.65-.4,4-1.88,4.17-4.34s-1.1-4.27-3.72-4.67a42,42,0,0,0-6.36-.06Z"/><path class="cls-1" d="M251,85.21a8.18,8.18,0,0,1-.5-1.09c-.93-3.17-2.79-4.39-6.29-4.09a5.33,5.33,0,0,0-5.18,5,58.33,58.33,0,0,0,0,8.15c.23,3.3,2.76,5.17,6.43,5.05,3.33-.1,5.11-1.9,5.34-5.22.12-1.79-.37-2.75-2.37-2.59a25.49,25.49,0,0,1-3.59-.19l0-.78h7.26c0,1.69,0,3.54,0,5.38a4.36,4.36,0,0,1-.57,1.68c-1.34,2.59-5.25,3.85-9.06,2.93a6,6,0,0,1-4.95-5.94c-.07-3-.09-6,0-8.92a6.32,6.32,0,0,1,5.21-5.8c3.57-.79,7.13.23,8.4,2.67A13.45,13.45,0,0,1,252,85Z"/><path class="cls-1" d="M305.59,78.81a6.57,6.57,0,0,1,.52,1.82c0,4.08.16,8.16,0,12.24-.21,4.67-2.89,6.89-7.71,6.77-4.48-.11-7-2.64-7.08-7.24q-.09-5.87,0-11.73c0-.65.57-1.28.88-1.92l.86.33c0,4.41,0,8.81,0,13.22,0,3.91,2,6,5.67,6s5.76-2,5.8-5.85c0-4.48,0-9,0-13.42Z"/><path class="cls-1" d="M213.28,99.05a4.33,4.33,0,0,1,.09-1.15q3.25-8.82,6.58-17.61c.21-.54.76-1.25,1.22-1.3s1.14.62,1.33,1.12c2.28,6.11,4.48,12.24,6.69,18.37.05.13-.08.31-.22.79-.5-.27-1.13-.39-1.32-.75a10.37,10.37,0,0,1-1-2.85c-.42-2.25-1.66-3.18-3.91-2.78a5.78,5.78,0,0,1-1,0c-4.8,0-4.78,0-6.55,4.45a12.76,12.76,0,0,1-1.27,2Zm11.8-7.6c-1.24-3.49-2.39-6.71-3.53-9.94l-.71.12c-1.13,3.2-2.27,6.4-3.48,9.82Z"/><path class="cls-1" d="M172.33,79.15H184.8l0,.83H174.16V88.2h8.67l0,.92h-8.7v8.93H184.7l.08.73a4.83,4.83,0,0,1-1.42.53c-3.06,0-6.12,0-9.17,0-1.2,0-1.89-.31-1.88-1.73C172.37,91.5,172.33,85.39,172.33,79.15Z"/><path class="cls-1" d="M310.38,99V79.15a63.39,63.39,0,0,1,8.5.08c3.16.43,4.75,2.86,4.59,6A5.67,5.67,0,0,1,318,90.89a32.76,32.76,0,0,1-4.32.08c-1.43-.06-2,.54-2,1.94,0,1.78,0,3.56-.13,5.34,0,.32-.41.62-.63.93ZM312,80.24v9.35c1.93,0,3.62.1,5.29,0,2.87-.22,4.52-1.88,4.59-4.41a4.6,4.6,0,0,0-4.46-4.88A54.14,54.14,0,0,0,312,80.24Z"/><path class="cls-1" d="M208.67,78.94c1,1.48,1.19,17.84.18,20.1C207.63,97.73,207.48,80.9,208.67,78.94Z"/></svg>