<svg id="Capa_1" data-name="Capa 1" xmlns="http://www.w3.org/2000/svg" viewBox="0 0 78.38 57.91"><defs><style>.cls-1{fill:#f4cc9c;}.cls-2,.cls-4{fill:none;}.cls-2,.cls-3{stroke:#e68e24;stroke-linecap:round;stroke-linejoin:round;}.cls-2{stroke-width:2.5px;}.cls-3{fill:#fff;stroke-width:1.5px;}</style></defs><title>sistemas_1</title><rect class="cls-1" x="5.01" y="38.19" width="68.36" height="17.23" rx="2.96" ry="2.96"/><rect class="cls-2" x="5.01" y="38.19" width="68.36" height="17.23" rx="2.96" ry="2.96"/><line class="cls-3" x1="12.47" y1="46.8" x2="21.5" y2="46.8"/><circle class="cls-3" cx="56.83" cy="46.8" r="1.72"/><circle class="cls-3" cx="64.2" cy="46.8" r="1.72"/><rect class="cls-4" x="5.01" y="20.96" width="68.36" height="17.23" rx="2.96" ry="2.96"/><rect class="cls-2" x="5.01" y="20.96" width="68.36" height="17.23" rx="2.96" ry="2.96"/><line class="cls-3" x1="12.47" y1="29.58" x2="21.5" y2="29.58"/><circle class="cls-3" cx="56.83" cy="29.58" r="1.72"/><circle class="cls-3" cx="64.2" cy="29.58" r="1.72"/><rect class="cls-1" x="5.01" y="3.74" width="68.36" height="17.23" rx="2.96" ry="2.96"/><rect class="cls-2" x="5.01" y="3.74" width="68.36" height="17.23" rx="2.96" ry="2.96"/><line class="cls-3" x1="12.47" y1="12.35" x2="21.5" y2="12.35"/><circle class="cls-3" cx="56.83" cy="12.35" r="1.72"/><circle class="cls-3" cx="64.2" cy="12.35" r="1.72"/></svg>