<svg id="Capa_1" data-name="Capa 1" xmlns="http://www.w3.org/2000/svg" viewBox="0 0 370.42 110"><defs><style>.cls-1{fill:#d9d9d9;}</style></defs><title>softonic</title><path class="cls-1" d="M194.13,26.91c.92.15,1.83.31,2.75.45.66.09.85.42.75,1.08-.21,1.38-.33,2.78-.54,4.17-.14.89-.45,1.13-1.34,1s-1.88-.36-2.82-.55c-2.41-.49-4.71-.43-6.75,1.18A11,11,0,0,0,183,38.71a30,30,0,0,0-1.32,3.91c-.24.82-.15,1,.73,1,3.54,0,7.07,0,10.61,0,1.27,0,2.55,0,3.82,0,.74,0,1.06-.2,1.18-1,.25-1.51.62-3,.9-4.51a.87.87,0,0,1,.84-.82c1.73-.26,3.44-.59,5.16-.85,1.2-.19,1.44.08,1.29,1.29-.2,1.71-.36,3.41-.56,5.11-.08.64.13.89.8.87,1.76,0,3.53,0,5.3,0,.64,0,.81.24.74.84-.17,1.31-.32,2.63-.42,4,0,.55-.29.68-.79.71-2.1.09-4.2.22-6.3.31a.8.8,0,0,0-.89.75c-1.3,6.84-2.74,13.65-3.83,20.53,0,.11,0,.21-.05.31-.28,2.47.63,3.49,3.11,3.52a10.83,10.83,0,0,0,3.16-.39c.84-.23,1-.1.92.75a27.27,27.27,0,0,1-.54,3.7,1.75,1.75,0,0,1-1.35,1.55c-3.13.64-6.23.85-9.17-.79s-4.16-4.24-3.73-8c.7-6.28,2.13-12.44,3.29-18.64.15-.77.25-1.54.44-2.3s-.09-.8-.69-.81c-4.18-.13-8.36,0-12.55,0-.7,0-1.41,0-2.1,0s-1,.24-1.07.89q-.91,5.05-1.89,10.11c-1.18,6.18-2.38,12.35-3.54,18.53a1.13,1.13,0,0,1-1.29,1.08c-1.82,0-3.63.17-5.45.28-.58,0-.7-.14-.59-.71q2.63-14.64,5.24-29.3c.13-.69-.09-1-.76-1-1.14,0-2.28-.05-3.43,0-.68,0-.87-.25-.78-.88.19-1.31.36-2.62.52-3.94a.7.7,0,0,1,.74-.71c1.3-.09,2.59-.27,3.88-.36a1.29,1.29,0,0,0,1.26-1.06c.34-1.17.63-2.37,1.07-3.5,2-5.17,5.15-9.28,10.42-11.49.83-.35,1.71-.39,2.54-.7Z"/><path class="cls-1" d="M341.21,45.79a16.49,16.49,0,0,0-.45,3c-.22,1.51-.28,1.59-1.76,1.13a26.44,26.44,0,0,0-5.16-1.08c-4.37-.45-7.73,1.38-10.43,4.51a19.28,19.28,0,0,0-5,13c0,.88,0,1.76,0,2.65a6.36,6.36,0,0,0,.92,3.25,4.53,4.53,0,0,0,3.47,2.22,16.64,16.64,0,0,0,10-1.82c1.16-.59,2.33-1.16,3.49-1.74.52-.26.87-.2.8.49A45,45,0,0,1,336,77.13c-.07.29-.33.38-.57.48a33.94,33.94,0,0,1-12.46,3.19c-3.44.09-6.68-.57-9.29-3a10.57,10.57,0,0,1-3-6.53c-1.13-8.32,1.43-15.43,7.15-21.47A20.87,20.87,0,0,1,326,44a21.23,21.23,0,0,1,8.14-1.09,43.55,43.55,0,0,1,5.58.54,3.61,3.61,0,0,1,1.47.46Z"/><path class="cls-1" d="M264.1,55.1c.5-.64.91-1.16,1.31-1.69A36.7,36.7,0,0,1,273,45.55a13,13,0,0,1,7.81-2.74,5.92,5.92,0,0,1,6.09,5.37,22,22,0,0,1-.48,6.73c-1.24,7.17-2.67,14.31-4.2,21.42a13.28,13.28,0,0,1-.56,1.86,2.14,2.14,0,0,1-2.47,1.69c-1.25,0-2.5-.06-3.74-.06-.69,0-.9-.22-.77-.95,1.41-7.53,2.64-15.09,3.86-22.66.19-1.15.34-2.31.51-3.47a.22.22,0,0,0,0-.08c0-.86.08-1.81-.75-2.33s-1.62,0-2.32.43a27,27,0,0,0-5.59,5.29c-2.82,3.26-5.35,6.76-7.92,10.23a4.69,4.69,0,0,0-.71,1.54c-1,3.5-1.58,7.1-2.41,10.64A1.32,1.32,0,0,1,258,79.69c-1.48.11-3,.11-4.44.19s-1.48-.12-1.23-1.47q1.8-9.93,3.62-19.86c.84-4.52,1.73-9,2.56-13.56.13-.68.41-1,1.1-1q2.88-.15,5.76-.35c.52,0,.54.22.46.62-.69,3.23-1.22,6.48-1.77,9.74A2,2,0,0,0,264.1,55.1Z"/><path class="cls-1" d="M110.34,80.76c-3.67.12-7.28-1.15-10.9-2.38a.88.88,0,0,1-.64-1,35,35,0,0,1,.62-5.1c.11-.61.43-.8,1-.58.8.31,1.59.63,2.39,1a21.59,21.59,0,0,0,8.59,2,6.22,6.22,0,0,0,3.07-.77,3.25,3.25,0,0,0,1.31-4.61,21.14,21.14,0,0,0-3.32-4.11c-1.73-1.83-3.53-3.6-5.08-5.6a10.68,10.68,0,0,1-2.61-5.89c-.26-4.25,1.85-7.17,5.37-9.22a12.33,12.33,0,0,1,5.66-1.57,25.73,25.73,0,0,1,10.64,1.56c1.14.44,1.15.45,1,1.65-.17,1.39-.33,2.78-.54,4.17-.17,1.12-.46,1.27-1.51.85a37.27,37.27,0,0,0-5.41-2,11,11,0,0,0-4.63-.21c-2.82.57-3.81,2.94-2.21,5.34a38,38,0,0,0,4.1,4.68,35.39,35.39,0,0,1,5.38,6.75,9.34,9.34,0,0,1-2.93,12.66C117.11,80.1,114.65,80.76,110.34,80.76Z"/><path class="cls-1" d="M293.59,79.91c-1.68,0-1.66,0-1.42-1.3q2.77-15.1,5.52-30.21c.23-1.23.47-2.45.7-3.68.07-.39.22-.65.69-.68,2.05-.11,4.09-.26,6.14-.4.68,0,.44.43.38.75q-.83,4.56-1.67,9.12-2.25,12.32-4.51,24.61c0,.23-.12.46-.14.69,0,.62-.37.82-1,.84C296.62,79.72,294.94,79.84,293.59,79.91Z"/><path class="cls-1" d="M302.92,38.13c-.65,0-1.3,0-1.95,0-.48,0-.74-.22-.68-.79.2-1.89.49-3.76.77-5.64.07-.42.21-.71.72-.73,1.79-.08,3.58-.22,5.37-.29.93,0,1.07.11,1,1-.17,1.86-.41,3.71-.6,5.57,0,.45-.27.56-.65.6A25,25,0,0,1,302.92,38.13Z"/><path class="cls-1" d="M64.2,26.91H58.59a.66.66,0,0,1,0,.14h5.63A.66.66,0,0,0,64.2,26.91Z"/><path class="cls-1" d="M92.41,54.74a30.33,30.33,0,0,0-11.65-21C75.92,30,70.53,27.31,64.21,27.05c-.17.39-.53.37-.87.38-1.29,0-2.59,0-3.89,0-.33,0-.7,0-.87-.38a23.57,23.57,0,0,0-5.56.6A32.61,32.61,0,0,0,32.57,43.82c-3.37,6-3.6,12.48-3.23,19.08a15.53,15.53,0,0,0,.35,2.63A34.51,34.51,0,0,0,39.77,82.69c.37.36.57.17.83-.09a11.08,11.08,0,0,1,3.61-2.27A27.65,27.65,0,0,1,48.28,79a1.47,1.47,0,0,0,1.16-1.17c1.55-5.26,3.11-10.52,4.72-15.76a1.94,1.94,0,0,0-.33-1.92c-3.34-4.58-6.74-9.11-9.93-13.8a1.21,1.21,0,0,1-.38-.92c.85.44,1.65.84,2.44,1.26,3.94,2.13,7.87,4.24,11.79,6.4a1.47,1.47,0,0,0,2-.21c.83-.78,1.74-1.49,2.58-2.26.45-.4.75-.41,1.13.09.77,1,1.61,2,2.4,3a1.41,1.41,0,0,0,1.83.48c4.5-1.62,8.93-3.41,13.4-5.1a.93.93,0,0,1,.84-.09,3.8,3.8,0,0,1-.63.58q-6,5.89-12.2,11.61a1.37,1.37,0,0,0-.54,1.27c.41,4.08.77,8.17,1.12,12.26a6.24,6.24,0,0,1,.12,2,1.56,1.56,0,0,1-.71-.55c-2.37-2.34-4.74-4.67-7.07-7.05-.51-.51-.78-.47-1.2.08-.62.84-1.32,1.61-2,2.41L54.32,77c-.14.17-.4.35-.27.6s.41.17.64.19l.63,0c3.7.27,7.43,0,11.14.27A32.06,32.06,0,0,1,77,80.53a9.75,9.75,0,0,1,3.11,1.9c.84.84.82.87,1.73.11.18-.15.36-.3.53-.46C90.1,74.57,93.68,65.5,92.41,54.74ZM46.32,44.89A3.34,3.34,0,0,1,43,41.66a3.59,3.59,0,0,1,3.38-3.34,3.52,3.52,0,0,1,3.33,3.46A3.15,3.15,0,0,1,46.32,44.89Zm11.79-3.45c-3.25,0-5.36-2.29-5.46-5.6a5.71,5.71,0,0,1,5.43-5.32,5.46,5.46,0,0,1,5.54,5.58A5.33,5.33,0,0,1,58.11,41.44Zm13,1.67a4.44,4.44,0,0,1-4.24-4.25A4.2,4.2,0,0,1,71,34.69a4.27,4.27,0,0,1,4.29,4.14A4.43,4.43,0,0,1,71.09,43.11Zm7.83,5.42a3.13,3.13,0,0,1-3-3.1,3.2,3.2,0,0,1,3-2.61,2.85,2.85,0,0,1,2.8,2.94A2.76,2.76,0,0,1,78.92,48.53Z"/><path class="cls-1" d="M59.45,27.43c1.3,0,2.6,0,3.89,0,.34,0,.7,0,.87-.38H58.58C58.75,27.44,59.12,27.42,59.45,27.43Z"/><path class="cls-1" d="M248.7,53.88A11.7,11.7,0,0,0,246.31,47a10.94,10.94,0,0,0-8.23-4.1c-5.74-.4-10.79,1.14-14.87,5.23a27.07,27.07,0,0,0-8.17,23,10.53,10.53,0,0,0,8.5,9.38c4.56.75,9.07.32,13-2.31,7.92-5.32,11.71-13,12.19-22.41C248.71,55.13,248.74,54.5,248.7,53.88ZM235.43,71.22A9.35,9.35,0,0,1,228,74.68a4.31,4.31,0,0,1-4-2.54,13,13,0,0,1-1.11-7.07,24.41,24.41,0,0,1,4.41-11.85,9.81,9.81,0,0,1,6.14-4.36,5.52,5.52,0,0,1,7,5,25.6,25.6,0,0,1,.18,3.27A20,20,0,0,1,235.43,71.22Z"/><path class="cls-1" d="M162,49.76a10,10,0,0,0-7.37-6.54,21.08,21.08,0,0,0-15.78,3.5A26.11,26.11,0,0,0,130,60.47a22.73,22.73,0,0,0-.46,12.16c1.11,4.23,3.8,7.06,8.09,7.84a17.67,17.67,0,0,0,16.18-4.77c5.79-5.58,9.18-12.27,8.93-20.57A12.13,12.13,0,0,0,162,49.76ZM148.91,72.05A8.26,8.26,0,0,1,141,74.48a3.23,3.23,0,0,1-2-1.1,8.11,8.11,0,0,1-1.91-4.28c-.68-6.49,1.44-12.13,5.4-17.15a8.19,8.19,0,0,1,8.28-3,4.22,4.22,0,0,1,3.45,3.13,16.09,16.09,0,0,1,.66,5.08A21.3,21.3,0,0,1,148.91,72.05Z"/></svg>