<svg id="Capa_1" data-name="Capa 1" xmlns="http://www.w3.org/2000/svg" viewBox="0 0 105.36 81.69"><defs><style>.cls-1,.cls-5{fill:#f4cc9c;}.cls-1,.cls-3,.cls-4,.cls-5{stroke:#e68e24;stroke-linecap:round;stroke-linejoin:round;}.cls-1,.cls-3,.cls-4{stroke-width:2.5px;}.cls-2,.cls-4{fill:none;}.cls-3{fill:#fff;}.cls-5{stroke-width:1.5px;}</style></defs><title>training</title><rect class="cls-1" x="38.84" y="7.66" width="57.01" height="47.52"/><rect class="cls-2" x="14.63" y="43.98" width="12.42" height="30.05"/><polyline class="cls-3" points="14.63 74.03 14.63 49.77 14.63 43.98 27.05 43.98 27.05 73.38"/><path class="cls-4" d="M14.63,55.18H13.26a3.74,3.74,0,0,1-3.74-3.74V42.22A9.44,9.44,0,0,1,19,32.78h24.5s-.77,4.62-4.62,4.62H27v17"/><path class="cls-3" d="M27,54.43v-17h11.8c3.85,0,4.62-4.62,4.62-4.62H19a9.44,9.44,0,0,0-9.44,9.44v9.22a3.74,3.74,0,0,0,3.74,3.74h1.37v-11"/><line class="cls-4" x1="20.72" y1="55.18" x2="20.72" y2="73.38"/><circle class="cls-4" cx="20.72" cy="22.86" r="6.31"/><line class="cls-5" x1="47.89" y1="18.4" x2="87.66" y2="18.4"/><line class="cls-5" x1="47.89" y1="26.88" x2="87.66" y2="26.88"/><line class="cls-5" x1="47.89" y1="35.37" x2="87.66" y2="35.37"/></svg>